<svg version="1.1" id="Layer_1" xmlns="http://www.w3.org/2000/svg" x="0" y="0" width="360" height="360" viewBox="0 0 360 360" xml:space="preserve"><style>.st1{fill:#339450}</style><path d="M176.1 324.8c-68.4 0-128.1-48.6-141.9-115.4l6-1.2c13.2 64 70.4 110.5 135.9 110.5s122.6-46.5 135.8-110.5l6 1.2c-13.7 66.8-73.4 115.4-141.8 115.4zm138.3-197.3l-1.4-.3-.3-1.1s0-.1-.1-.2c-22.3-56.4-75.9-92.8-136.5-92.8-3.9 0-7.9.1-11.7.5-.8.1-1.6.1-2.4.2-55 5-102.3 40-123 92.1 0 .1-.1.1-.1.2l-.3 1.1-1.4.3.6-1.9C48.6 98.3 67.1 75 91.3 58.2c20.3-14.1 43.5-22.7 67.8-25.4h.1l2.7-.3c.8-.1 1.6-.1 2.4-.2 3.9-.3 7.8-.5 11.7-.5 30.3 0 59.4 9.1 84.2 26.3 24.2 16.8 42.7 40.1 53.5 67.4l.7 2z"/><linearGradient id="SVGID_1_" gradientUnits="userSpaceOnUse" x1="174.6" y1="44.4" x2="174.6" y2="326.2" gradientTransform="matrix(1 0 0 -1 0 362)"><stop offset="0" stop-color="#e0d195"/><stop offset=".561" stop-color="#fff"/><stop offset=".632" stop-color="#fcfbf6"/><stop offset=".747" stop-color="#f5f1de"/><stop offset=".89" stop-color="#eae0b8"/><stop offset="1" stop-color="#e0d195"/></linearGradient><circle cx="174.6" cy="176.7" r="140.9" fill="url(#SVGID_1_)"/><path d="M176.1 328C106 328 45 278.3 31 209.8l1.6-.3c13.9 67.8 74.3 116.9 143.6 116.9s129.7-49.2 143.6-116.9l1.6.3C307.2 278.3 246.1 328 176.1 328z"/><path d="M60.3 234l-.2-2c10.7-1.3 21.8-2.4 33.1-3.2l.2 2c-11.3.9-22.4 2-33.1 3.2zm233.5 0c-10.7-1.3-21.8-2.4-33-3.2l.2-2c11.2.9 22.4 2 33.1 3.2l-.3 2zM45.3 181.3l-14.5 2.4-1 11.2-11.2 1.9 7.7-55.3 9.7-1.6 25.3 49.8-11.3 1.9-4.7-10.3zm-13.6-6.8l9.8-1.6-8-17.9-1.8 19.5zm50-6.5l-5.3.5 2 19.4-10.7 1.1-5.5-53 17.1-1.8c5.4-.6 9.7.4 12.9 2.9 3.2 2.5 5.1 6.3 5.6 11.4.7 7-1.3 12.2-6.2 15.6l11.5 20.7.1.5-11.5 1.2-10-18.5zm-6.2-8.3l6.1-.6c2.1-.2 3.7-1.1 4.6-2.6s1.3-3.5 1-5.9c-.5-5.3-2.9-7.8-7-7.3l-6.3.6 1.6 15.8zm35.1 25.2l-2.8-53.2 14.1-.7c6.2-.3 11.3 1.4 15.2 5.2s6.1 9.1 6.5 15.9l.4 8.6c.4 7-1.2 12.6-4.7 16.8s-8.5 6.4-15 6.8l-13.7.6zm8.5-44.8l1.8 35.4 3.2-.2c3.6-.2 6.1-1.3 7.4-3.2 1.4-2 2-5.3 1.8-9.9l-.5-9.2c-.3-5-1.1-8.4-2.6-10.3-1.5-1.9-3.9-2.8-7.3-2.7l-3.8.1zm49.7-10.6l9.9 38.6 10.2-38.5 14.1.1-.2 53.3H192l.1-14.4 1.1-22.2-10.8 36.6h-7.3l-10.5-36.7.9 22.2-.1 14.4h-10.8l.2-53.3 14-.1zm82.8 34.2c-.4 7.1-2.4 12.6-6 16.3s-8.4 5.4-14.4 5.1c-6-.4-10.5-2.6-13.7-6.7-3.2-4.1-4.6-9.7-4.2-16.7l.5-9.1c.4-7.3 2.5-12.9 6.1-16.8 3.6-3.9 8.5-5.7 14.5-5.3 5.9.3 10.5 2.6 13.6 6.9s4.6 10 4.2 17.3l-.6 9zm-10.3-9.5c.3-4.8-.2-8.4-1.4-10.8-1.2-2.4-3.3-3.7-6.2-3.9-2.8-.2-5 .8-6.5 3s-2.4 5.6-2.7 10.2l-.6 9.5c-.3 4.7.2 8.1 1.5 10.4 1.3 2.3 3.3 3.5 6.2 3.7 2.8.2 4.9-.8 6.4-2.9 1.5-2.1 2.4-5.4 2.7-9.9l.6-9.3zm36.5 14.6l-5.3-.6-2.2 19.4-10.7-1.2 6-53 17.1 1.9c5.4.6 9.3 2.5 12 5.6 2.6 3.1 3.6 7.2 3 12.3-.8 7-3.9 11.7-9.3 13.9l6.8 22.7-.1.5-11.5-1.3-5.8-20.2zm-4.3-9.5l6.1.7c2.1.2 3.8-.3 5-1.6s2-3.1 2.2-5.5c.6-5.3-1.2-8.2-5.3-8.7l-6.3-.7-1.7 15.8zm59.8 14.2l-16.5-2.9-2.4 13.9 19.6 3.4-1.5 8.8-30.2-5.2 9.1-52.5 30.1 5.2-1.5 8.8-19.5-3.4-2.1 12.4 16.5 2.9-1.6 8.6zm-225.7 82.8c-1.9.1-3.6-.1-5.2-.6s-2.4-1.3-2.5-2.6c0-.7.1-1.3.5-1.8s1-.8 1.8-.8 1.4.4 1.9 1.2c.2.3.6.5 1.3.8.7.2 1.7.3 3 .3 1.3-.1 2.6-.6 3.9-1.7 1.2-1.1 2.2-2.3 2.9-3.7 2.1-4.1 3.7-10.6 4.7-19.4-.4 0-1 0-2 .1h-1.7c-1.9-.1-2.8-.5-2.9-1.2 0-.7.5-1.3 1.5-1.7s2.9-.7 5.6-.9c.5-3.2 1.3-7.6 2.2-13.3.9-5.6 1.6-9.6 2-11.9-6.4 1.3-11.8 3.1-16.1 5.4-2.5 1.3-4.3 2.9-5.6 4.8-1.3 1.9-1.8 4.4-1.7 7.2.1 2.9 1.6 6.4 4.4 10.6.4.5.5 1 .6 1.4 0 .6-.5.9-1.5.9-1 .1-1.9-.4-2.8-1.3-2.9-4.4-4.4-8.3-4.6-11.7s.4-6.2 1.7-8.5c2.4-4.3 7-7.6 13.6-10 5.7-2.1 12.1-3.4 19.2-3.7 13.3-.7 20-.1 20.1 1.8.1 1.5-.8 2.3-2.5 2.4h-.6c-4.6-.4-8.7-.5-12.5-.3-3.7.2-6.2.4-7.5.7-.3 1.7-.8 4.4-1.5 8.3-.7 3.9-1.3 7.6-1.9 11.1s-.9 5.4-1 5.7c.7 0 1.7-.1 2.9-.2s2.1-.2 2.8-.2c.6 0 1.4 0 2.3.1.9.1 1.4.5 1.4 1.3s-.3 1.3-1.2 1.6c-1.5.5-4.3.8-8.6 1-1.1 10.3-2.9 17.6-5.3 21.9-2.4 4.4-6.1 6.7-11.1 6.9zm47.6-32.6h1.7c1 0 1.5.4 1.5 1.3 0 .3 0 .5-.1.6l-2.6 15.2c-.1.7-.1 1.1-.1 1.4.1 2.1.8 3.2 2.3 3.2h.3c.9-.1 1.8-.4 2.5-.9.4-.2.7-.4 1.1-.6.3-.2.7-.5 1-.8l.8-.8c.2-.2.5-.5.8-.9s.5-.7.6-.8.3-.4.6-.8l.6-.9c.2-.2.4-.3.6-.3.2 0 .5.4.7 1.1.3.7.4 1.3.4 1.7s0 .6-.1.7c-1.1 1.7-2.6 3.2-4.5 4.7s-3.7 2.2-5.4 2.2-3-.5-4-1.5c-1-1.1-1.5-2.5-1.5-4.2v-.4c-.6 2-1.9 3.6-3.7 4.9-1.9 1.3-3.8 2-5.9 2-4.6.1-7-2.4-7.1-7.6-.1-2.8.6-5.8 2-8.9 1.4-3.1 3.4-5.8 6-8.1s5.2-3.5 7.7-3.5c2.5-.1 3.8.5 3.8 1.6v.4zm-11.7 22.5c2.1-.1 3.8-1.1 5.2-3.3 1.4-2.1 2.3-4.2 2.8-6.3l2.9-11.4h-1c-3.7.1-6.9 2-9.8 5.9-2.8 3.8-4.2 7.3-4.1 10.5.2 3.1 1.5 4.7 4 4.6z"/><path d="M174 225.2c-1.4 4.8-2.2 9.6-2.5 14.3 1.1-3.5 2.9-7.3 5.5-11.6s4.9-6.4 6.9-6.4 3 1 3 2.9c0 1-.2 2.6-.7 4.5-.5 2-.7 3.4-.7 4.3 0 1.8.6 2.7 1.7 2.7 1.3 0 2.9-1 4.9-3.1.3-.3.7-.5 1.1-.5.6 0 .9.3.9 1s-.2 1.3-.6 1.7c-2.2 2.9-4.5 4.3-7.1 4.3-1.5 0-2.6-.6-3.4-1.7-.7-1.1-1.1-2.5-1.1-4.2s.2-3.2.6-4.4c.4-1.2.6-2 .6-2.3s-.1-.5-.3-.5c-.4 0-1.3.9-2.5 2.7s-2.6 4.4-4.3 7.7c-1.6 3.4-3.1 6.8-4.4 10.4-.3.7-.5 1.1-.8 1.3-.2.2-.8.3-1.5.3-1 0-1.6-.4-1.9-1.1-.2-.7-.4-1.9-.4-3.5v-.6c.1-6.1 1.1-12.4 3-18.9.4-1.2.8-2 1.1-2.5.4-.4.9-.7 1.4-.7.6 0 1 .1 1.4.4.3.3.5.7.5 1.1.2.7 0 1.4-.4 2.4zm45.8 19.2c0-2.1.8-5.2 2.2-9 1.4-3.9 2.1-6.1 2.1-6.7 0-.6-.2-.9-.6-.9-.9 0-2.6 2.1-5.3 6.2-2.6 4.2-4.7 8.1-6.3 11.8-.9 2.3-2.1 3.5-3.4 3.5-.1-.1-.2-.2-.6-.3-.9-.4-1.3-1.1-1.3-2.2v-.4c.2-1.9.8-5.3 1.9-10.2 1.1-4.9 1.7-7.6 1.7-8.1s-.1-.7-.2-.7c-.8 0-2.4 1.8-4.8 5.5-2.5 3.7-4.4 7.3-5.9 10.7-1.2 2.5-2 4-2.5 4.6-.5.5-1.3.8-2.4.8-1.4 0-2.1-1.1-2.1-3.3 0-.7.1-1.2.1-1.6 1.2-7.7 2.6-14 4.1-18.8.8-2.5 1.8-3.8 3.2-3.7.8.1 1.2.6 1.2 1.4 0 .1-.3 1-.8 2.7s-1.8 7.6-3.9 17.7c3-7 5.9-12.2 8.7-15.5 2.9-3.3 5.2-5 7.1-4.9 1.5 0 2.3.9 2.2 2.7 0 1.8-.8 5.3-2.1 10.4-.7 2.7-1.3 4.8-1.6 6.2 2.4-6.6 5-11.4 7.9-14.7 2.9-3.2 5.3-4.8 7.4-4.8 1.9 0 2.8 1.1 2.7 3.3 0 1.5-.8 4.5-2.4 8.8-1.6 4.3-2.4 7.3-2.4 8.8s.6 2.3 1.8 2.3h.2c2.5.1 5.5-1.9 9.1-5.7.2-.2.4-.2.7-.2s.6.2 1 .5.6.7.6 1-.1.5-.3.7c-4 5-8 7.5-12 7.4-1.5 0-2.8-.5-3.8-1.4-.7-.9-1.2-2.2-1.2-3.9z"/><path d="M247.2 227.8c0 .9.8 3.1 2.7 6.4 1.8 3.3 2.7 5.9 2.6 7.8-.1 1.9-.6 3.6-1.6 5 1.8-.2 3.5-1 5.1-2.1l1.3-.9c.3-.3.7-.6 1.2-1s.8-.7 1-.9.4-.5.8-.9c.3-.4.5-.6.5-.6.1-.1.2-.2.3-.1.3 0 .7.3 1 .9.3.6.5 1.1.5 1.4 0 .4-.1.6-.1.6-4.9 5.2-10.8 7.6-17.7 7.2-3.5-.2-6.4-1-8.6-2.4-2.2-1.4-3.4-2.8-3.8-4.2.3-.6.8-1.5 1.4-2.6l3.6-6.3c1.8-3.1 3.8-6.6 6-10.4.7-1.2 1.4-1.7 2.2-1.7s1.4.3 1.8.8c.4.5.6 1 .5 1.6l-.7 2.4zm-3.8 19.4c3.2.2 4.9-1.2 5.1-4.2.1-3-1.3-7-4.4-12.2l-.9 1.7-6.6 11c1.5 2.3 3.7 3.5 6.8 3.7zm66.4-120.6l-5.1-.9c0-.1 0-.1-.1-.2-21.9-51.8-72.3-85.2-128.5-85.2-3.7 0-7.4.2-11 .4-.7 0-1.3.1-2 .2-.8.1-1.6.1-2.4.2C110.6 46.5 67 78.4 47 125.5c0 .1-.1.2-.1.2l-5.1.9 1-2.6c20.9-49.5 67-82.8 119.8-87.5 1.6-.2 3.2-.3 4.8-.4 2.9-.2 5.8-.3 8.7-.3 58.1 0 110.2 34.6 132.8 88.1l.9 2.7z"/><path class="st1" d="M180 81c-1.7 1.5-3.2 3.3-4.3 5.2-2.3 3.9-2.6 8.2-2 12.5.2 1.5.7 2.8 1.4 4.1-.5.7-1.1 1.4-1.7 2-1.9-1.7-15.5-14.3-12.3-30.7 0 0-8.7 19.4 8.4 34.3-.5.5-1 .9-1.6 1.4-3.4-2.9-8-3.3-11.6-6-3.2-2.4-5.6-5.8-7.1-9.5-3.5-8.9-.8-18 4.5-25.6 1.8-2.6 3.8-4.9 6.1-7.1.6-.6 6.9-6.2 7-6 4.4 5.5 8.1 11.8 10.9 18.3 1 2.4 1.8 4.8 2.3 7.1z"/><path class="st1" d="M211.5 73.8l-.2.7c-1 3.7-1.4 7.5-1.5 11.3-.1 3.4-.2 6.8-.4 10.1-.2 3.4-.9 6.8-3 9.6-1.6 2.2-3.8 3.6-6.3 4.5-5.5 2-11.1 2.1-16.7.4-1.1-.3-1.1-.4-1.1-1.6.1-3.8 1.5-7.3 3.4-10.5 2.2-3.7 5-6.9 8-10 1.4-1.4 2.6-2.9 3.9-4.4l.2-.4-.5.3c-3.6 2.5-7.2 5-10.4 8.1-4 3.9-6.5 8.6-7.6 14.1 0 .2-.1.4-.2.8-.4-.5-.7-.9-1-1.3-.5-.7-.9-1.4-1.3-2.2-.7-1.3-1.2-2.6-1.4-4.1-.6-4.4-.3-8.6 2-12.5 1.1-2 2.6-3.7 4.3-5.2l.2-.2c3.4-2.9 7.3-4.7 11.5-5.9 4-1.1 8-1.5 12.1-1.5h5.1l.9-.1z"/><path d="M296.4 51.5c0-5.8 4.2-9.9 9.4-9.9s9.4 4 9.4 9.9c0 5.8-4.2 9.8-9.4 9.8-5.1 0-9.4-4-9.4-9.8zm16.8 0c0-4.7-3.2-8.1-7.4-8.1s-7.4 3.3-7.4 8.1c0 4.7 3.2 8 7.4 8s7.4-3.3 7.4-8zm-11-5.2h3.8c2.1 0 3.9.8 3.9 3.2 0 1.2-.8 2.4-1.9 2.8l2.3 4.1H308l-1.8-3.5h-2v3.5h-2.1V46.3zm3.3 5c1.3 0 2.2-.6 2.2-1.7 0-1-.6-1.7-2.1-1.7h-1.4v3.3h1.3z"/></svg>