<svg version="1.1" id="Layer_1" xmlns="http://www.w3.org/2000/svg" x="0" y="0" width="60" height="60" viewBox="0 0 60 60" xml:space="preserve"><path id="Union_11" fill="#4B3048" d="M28.6 53.6V48l-4.8 2.8c-.3.2-.5.2-.7.2-.7 0-1.3-.6-1.3-1.3 0-.5.3-.9.7-1.2l6.2-3.6V32.3l-3 1.7c-.7.2-1.5-.1-1.7-.8-.2-.6 0-1.2.5-1.5l2.9-1.7-11-6.4-6.2 3.6c-.6.4-1.4.1-1.8-.5-.2-.3-.2-.7-.1-1 .1-.3.3-.6.6-.8l4.8-2.8-4.8-2.8c-.6-.4-.9-1.2-.5-1.8.2-.3.5-.5.8-.6.3-.1.7 0 1 .1l4.8 2.8v-5.6c0-.7.6-1.3 1.3-1.3.7 0 1.3.6 1.3 1.3v7.1l11 6.4v-5.2c.1-.7.8-1.2 1.5-1.1.6.1 1.1.5 1.1 1.1v5.2l11-6.4v-7.1c0-.7.6-1.3 1.3-1.3.7 0 1.3.6 1.3 1.3v5.6l4.9-2.8c.3-.2.7-.2 1-.1.3.1.6.3.8.6.2.3.2.7.1 1-.1.3-.3.6-.6.8l-4.8 2.8 4.8 2.8c.6.4.8 1.2.5 1.8-.4.6-1.2.9-1.8.5l-6.2-3.6-11 6.4 3 1.7c.5.4.6 1.1.3 1.7-.3.6-1.1.8-1.7.5l-2.9-1.7V45l6.2 3.6c.6.4.9 1.2.5 1.8-.4.6-1.2.9-1.8.5L31.2 48v5.6c0 .7-.6 1.3-1.3 1.3-.7.1-1.3-.5-1.3-1.3zm13.6-7.8v-7.1L39 36.8c-.6-.4-.7-1.3-.2-1.9.4-.5 1-.6 1.5-.4l3.2 1.9 6.2-3.6c.3-.2.7-.2 1-.1.7.2 1.1.9.9 1.6-.1.3-.3.6-.6.8l-4.8 2.8 4.8 2.8c.3.2.5.5.6.8.1.3 0 .7-.1 1-.2.4-.7.7-1.1.7-.2 0-.5-.1-.7-.2l-4.8-2.8v5.6c0 .7-.6 1.3-1.3 1.3-.8 0-1.4-.6-1.4-1.3zm-27.3 0v-5.6L10.1 43c-.2.1-.4.2-.7.2-.5 0-.9-.3-1.1-.7-.2-.3-.2-.7-.1-1 .1-.3.3-.6.6-.8l4.8-2.8-4.8-2.8c-.6-.4-.9-1.2-.5-1.8.1-.3.4-.6.7-.7.3-.1.7 0 1 .1l6.2 3.6 3.1-1.8c.7-.3 1.5 0 1.8.6.3.5.1 1.2-.3 1.6l-3.3 1.9v7.1c0 .7-.6 1.3-1.3 1.3-.7.1-1.3-.5-1.3-1.2zm13.7-28.9V15l-6.2-3.6c-.6-.4-.9-1.2-.5-1.8.4-.6 1.2-.9 1.8-.5l4.8 2.8V6.3c0-.7.6-1.3 1.3-1.3.7 0 1.3.6 1.3 1.3v5.6L36 9.1c.3-.2.7-.2 1-.1.7.2 1.1.9.9 1.6-.1.3-.3.6-.6.8L31.1 15v1.9c-.1.7-.8 1.2-1.5 1.1-.5-.1-.9-.5-1-1.1z"/></svg>