<svg version="1.1" id="Layer_1" xmlns="http://www.w3.org/2000/svg" x="0" y="0" width="612" height="360" viewBox="0 0 612 360" xml:space="preserve"><style>.st0{fill:#55b047}.st1{fill:#fff}</style><path class="st0" d="M405 96.2c.1.4.1 4.3.2 11.6s.2 11.1.2 11.4l3.1 29.8v4.8c0 3.1-.1 5.3 0 6.8 1.5 8.9 3 20.8 4.4 35.6-.6.9-1.8 2-3.4 3.2-7.5 1.4-14.9 2.5-22.2 3.2-1.9.2-3 .2-3.3.1-3.7-1.8-6.4-4.1-8.2-7-.2-.6-.8-3-1.7-7.3-1.7-9.6-4.8-25.1-9.3-46.4-3.8-18.9-5.6-28.4-5.6-28.6.1 1-.1-1.5-.6-7.6-.5-5.6-1-11.4-1.6-17.4-.4-3.5.3-5.7 2.2-6.8 1-.5 4.7-1.4 11.2-2.5 2-.4 5.8-1 11.3-2.1 4.6-.8 7.2-1.2 7.6-1.2.6-.1 2.3.5 5 1.7 3.8 1.5 7 5 9.5 10.6.3.3.7 3 1.2 8.1z"/><path class="st1" d="M399.6 192.7l-10.9-103c0-.4-.3-1.7-.8-3.7-.5-2.1-.9-3.4-1.1-3.9-.2-.1-.5-.3-1-.6-5 1.1-12.9 2.5-23.6 4.3 0 4.5.5 10.8 1.3 18.7.9 8.7 6.8 38.7 17.7 90.2l18.4-2z"/><path class="st0" d="M418.3 222.5c.5 4.3-1.1 8.3-4.7 12-3.6 3.7-7.2 5.7-11 6.1-4.3.5-8.8-1.2-13.5-4.8-4.6-3.7-7.2-7.8-7.7-12.5-.5-4.9.8-9.3 3.9-13.1 3.1-3.8 7.1-6 12-6.5 5.8-.6 10.6 1.1 14.6 5.3 3.8 3.5 5.9 8.1 6.4 13.5z"/><path class="st1" d="M407.3 220c-.9-8.2-3.8-12.1-8.7-11.6-3.5.4-6.5 1.7-9 4-2.8 2.8-4 6-3.6 9.6.3 2.6 1.9 5.1 4.9 7.4 3 2.3 5.8 3.3 8.4 3.1 6.2-.7 8.8-4.9 8-12.5zM399 97.6c-.4-3.6-.8-5.9-1.2-6.9-.6-2-2.3-4.7-5-8.2l11.7 111c1.3.6 2.5.8 3.6.7.1.9-.1-1.4-.7-6.7l-1.6-14.7c-.3-2.6-.7-6.9-1.4-12.8-.3-2.9-.7-6.6-1.2-11.3-.5-4.6-.7-7-.8-7.2l-2.2-20.4c-.1-.4-.3-4.4-.7-11.8-.2-7.3-.5-11.2-.5-11.7zm15.6 124.7c-.2-3.1-.8-5-1.9-5.9-1.6-1.3-2.4-2-2.4-2.2 1.2 7.2 1.2 11.7.1 13.6l2.3 1.3c1.4-2.8 2.1-5.1 1.9-6.8z"/><path class="st0" d="M383.7 190c.2.7.3 1.6.2 2.6-.1 5.3-1.2 9.1-3.1 11.5-1.5 1.9-4.1 3.2-7.9 4.1-.9.2-2.6.6-4.9 1-2.3.4-4.2.8-5.6 1.2-.7.2-1.8.5-3.2 1-1.4.5-2.5.8-3.1.9-1.6.4-3.2-.5-5-2.6-1.4-1.5-2.7-3.1-4-4.8 0 .7 0 1.8-.1 3.3-.4 4.1-1.4 6.8-3 8.1-1 .9-3.8 1.9-8.3 3-1.3.3-3.1.9-5.5 1.9-2.4 1-4.2 1.6-5.4 1.8-1.7.4-3.5-1.8-5.7-6.5-1.2-3.1-2.3-6.3-3.5-9.5-2.1-5.4-5.1-13.5-9.1-24.4-5.7-14.9-8.9-23.6-9.6-26.3-.1-.6.6-2.9 2.1-6.7 1.6-3.8 2.6-5.9 3.1-6.2 7.7-4.2 14.2-6.9 19.5-8.2.9-.2 2.9 1.1 5.9 3.9 1.9 1.9 3.7 3.8 5.6 5.6.6-3.9 1-6.4 1.3-7.6.6-2.7 1.5-5 2.7-7.1.8-1.3 3.1-2.9 7.1-4.8 3.5-1.8 6.3-2.9 8.3-3.4.3-.1.7-.3 1.3-.8.6-.5 1-.7 1.3-.8 1.6-.4 4.5 4.4 8.7 14.4 2.8 6.3 6 14.9 9.6 25.8 2.8 8.7 5.7 17.5 8.7 26.2.1.3.3.8.7 1.5.5.8.8 1.4.9 1.9z"/><path class="st1" d="M325.8 212.4c-.2-1-.9-2.5-2-4.6-1.1-2-1.8-3.5-2.1-4.4-1.9-4.9-4.7-12.4-8.4-22.5-2.2-7.6-5.7-18.2-10.6-31.8-.4 1.8-1.2 4.3-2.5 7.5.9 2.7 2.5 6.8 4.9 12.4 3.1 7.3 4.8 11.4 5.2 12.4 1.7 5 4.3 12.4 7.9 22.3 1.4 2.7 3.3 7 5.7 12.7 1.3-2.6 1.9-3.9 1.9-4zm53.3-22.4l-.2-.8c-.9-3.8-4.5-14-10.8-30.8-1.3-3.6-5.6-15.1-12.9-34.5-1.4 1.2-3.7 2.4-7 3.8-2.6 1-5.2 2.1-7.7 3.2 1.2 4.4 4.3 12.3 9.2 23.9 4.4 10.6 7.2 18.6 8.4 24l.4 1.5c-.5.7-1 1.1-1.5 1.2-1.3.3-3.8-1.8-7.3-6.4-2.1-3-4.3-6-6.4-9.1-9-12.3-16-21.4-21.2-27.3-7.6 3.4-13.4 5.7-17.5 7l.2.8c.3 1.1.9 2.7 2 4.9 1.4 2.7 2.2 4.3 2.5 4.8.3.5 3.1 8.8 8.5 24.7 2.3 6.3 5.9 15.6 10.8 28.1.4.1.8 0 1.2-.1 1-.2 2.6-.8 4.7-1.7 2.1-.9 3.7-1.5 4.8-1.7 1.1-.3 2.3-.9 3.7-1.9-1-2.3-2.4-5.6-4.3-10.1-.3-.4-2.4-4.3-6.3-11.7-2.6-4.8-4.2-8.8-5-12-.4-1.6 0-2.5 1.2-2.8 1-.2 5.6 4.5 13.9 14.1 4.9 5.8 9.7 11.6 14.6 17.5.8 0 1.3-.1 1.7-.2 2.6-.6 6-2 10.2-4.2 4.6-2.1 7.9-3.5 10.1-4.2z"/><path class="st1" d="M354.7 201.7c-.2-.7-6.1-7.6-17.8-20.7l.2.9c.9 3.9 3.4 8.5 7.4 13.8 3.3 4.2 6.5 8.4 9.7 12.5l.5-6.5zm-3-31.1c-4.9-10.6-9.4-21.6-13.4-33-1.4 2.8-1.9 5.1-1.5 6.7 1 4.3 6 13.1 14.9 26.3z"/><path class="st0" d="M321.7 170.8c1 3.9.8 11.2-.4 21.8-.3 2.8-.6 5.6-1 8.4-.5 3.1-1.2 5.8-2.1 8.1-3.7 9.2-9.6 16.3-17.7 21.3-3.2 1.9-6.7 3.2-10.4 4.2-6.4 1.6-12.9 1.7-19.3.3s-12-4.2-16.8-8.6c-1.3-1.2-2.8-3.6-4.5-7.3-1.5-3.3-2.5-6.1-3-8.3-1.6-6.5-2.3-15.5-2.2-27 .1-12.3 1.2-21 3.4-26.1l12.9-2.1c6.3-.9 10.1-.6 11.4.7.5.5 1.8 1.9 3.8 4.5 2 2.5 3 3.9 3.1 4.2.1.2-.2 4.2-.6 11.8-.4 8.1-.7 12.7-.6 13.8.1 3.3.4 6.2.9 8.5 1.1 4.3 3 6.1 5.7 5.5 2.7-.7 4.5-8 5.6-22.1.4-8.7.8-17.4 1.1-26.1 5.2-.5 13-.9 23.3-1.2 1.1 1.2 2.6 3.8 4.4 7.7 1.6 3.6 2.6 6.3 3 8z"/><path class="st1" d="M310 159c-3.3.4-8.3.9-14.8 1.6-.5 5.7-1 14.2-1.5 25.6-.2 6.6-.9 11.4-2.1 14.6-1.8 5.3-5.2 8.5-10.1 9.7-7.1 1.7-11.8-2.2-14.1-11.8-.6-2.5-1-6.9-1.2-13.2-.1-6 0-10.4.2-13.4.4-2.7.8-6.7 1-12.1-1.9-.3-4-.2-6.4.3 2.5-.5.4 0-6.3 1.7-.4.1-.9.1-1.7-.1-.7-.2-1.3-.2-1.6-.1-1.8.4-2.8 7.7-3 21.7-.2 10.6.9 20.4 3.1 29.5.4 1.6 2.1 4.2 5.2 7.9 1.3 1.7 3.3 3.8 6 6.3 2.6 1.4 6.1 2.3 10.5 2.7 4.1.3 7.8 0 11.1-.8 8.7-2.1 15.5-7.3 20.3-15.6 4.4-7.5 6.4-15.9 6-25.2-.1-1.3.1-6.2.6-14.6.1-6.2-.3-11.1-1.2-14.7z"/><path class="st0" d="M270.4 126c.9 2 1.5 4.8 2.1 8.5l1.5 8.9c-5.3 3.1-17.8 8.1-37.5 15.2-.2.1-4 1.9-11.5 5.4.3.9.6 2.1 1 3.6 4.5-1 8.9-2.1 13.2-3.1 4.4-.4 8.3 1.7 11.8 6.2.3.4.7 1.5 1.4 3.3 2.4 6.4 3.8 10.8 4.4 13.3-.8.9-2.9 2.1-6.4 3.6-3.5 1.5-6.9 3-10.2 4.5-3.3 1.5-5 2.2-5.1 2.2.5 4.2 1.8 11.4 4 21.6 2.1 9.2 3.2 16.4 3.3 21.7.2 3.1-.2 4.8-1 5.1-.8.3-2.1.9-3.7 1.8s-2.9 1.5-3.9 1.9c-6.4 2.4-10.9 3.6-13.5 3.8-1.8.1-4.4-1.6-7.9-5.1-3.2-3.2-5.2-5.7-5.9-7.6-1.5-4.1-6.4-21.5-14.6-52.2-8.2-30.8-12.2-46.7-12-47.9.2-1.2 1.3-2.1 3.3-2.9.6-.2 1.7-.5 3.3-.8 1.5-.3 2.7-.5 3.4-.8 30.2-11.2 53.3-17.9 69.5-19.9 1.2-.1 4.5 2.4 10.1 7.5l.9 2.2z"/><path class="st1" d="M255.2 123.7c-11.6 3-23.2 6-34.8 9.1-14.7 3.9-26.4 7.4-35.1 10.7l26.6 95.8c0 .4.2.9.7 1.6.4.7.7 1.2.8 1.5 1.8-.7 4.5-1.6 8-2.8 3.6-1.2 6.2-2.1 7.9-2.7-3.2-10.6-7.3-25.9-12.4-46-.2-1.6.5-2.7 2.2-3.4 1-.4 2.4-.8 4.4-1.3 2-.5 3.5-.9 4.4-1.3 1.5-.6 3.7-1.5 6.7-2.8 3-1.3 5.2-2.2 6.7-2.8 0-.9-.9-3.8-2.7-8.8l-1.4.5c-2.1.9-6.1 1.9-12.2 3.1-6.6 1.4-10.5 1.8-11.6 1.2-3.5-12.1-4.6-18.6-3.2-19.5 4.5-3.1 20.8-9.3 48.6-18.6.1-2.2-1.1-6.7-3.6-13.5z"/><path class="st1" d="M229.1 197.7l-5.3-3.1c1.7 6.2 4.3 15.5 7.9 28 .4 1.4.9 3.9 1.4 7.4.5 3.5 1.1 6.1 1.7 7.8.1.3.7 1.1 1.8 2.2 1.1 1.2 1.8 1.9 2 2.2-1.8-8.2-4.5-20.5-8-36.9-1.4-5.9-1.8-8.5-1.5-7.6zm-9.3-34.4c-.2-.4-1.5-1.5-4.1-3.2.8 3.5 1.4 6.7 1.9 9.7l2.9-1.1c-.6-3.9-.8-5.7-.7-5.4zm31 19.2l-3.3-9c-.2-.4-.9-1-2.2-1.8-1.3-.8-2.1-1.3-2.3-1.4.4.8.8 2 1.1 3.4.3 1.5.6 2.5.8 3.2.6 1.5 1.4 2.6 2.4 3.4 1.1.7 2.2 1.5 3.5 2.2zm14.8-55.7c0 .1-1.2-1.1-3.8-3.5.6 1.6 1.3 4.2 2 7.7.8 3.5 1.3 5.8 1.7 6.9.2.4.6.8 1.3 1.1 1 .6 1.5 1 1.7 1-1.5-7.7-2.5-12.2-2.9-13.2z"/><path class="st0" d="M405.4 95.8c.1.4.1 4.3.2 11.6s.2 11.1.2 11.4l3.1 29.8v4.8c0 3.1-.1 5.3 0 6.8 1.5 8.9 3 20.8 4.4 35.6-.6.9-1.8 2-3.4 3.2-7.5 1.4-14.9 2.5-22.2 3.2-1.9.2-3 .2-3.3.1-3.7-1.8-6.4-4.1-8.2-7-.2-.6-.8-3-1.7-7.3-1.7-9.6-4.8-25.1-9.3-46.4-3.8-18.9-5.6-28.4-5.6-28.6.1 1-.1-1.5-.6-7.6-.5-5.6-1-11.4-1.6-17.4-.4-3.5.3-5.7 2.2-6.8 1-.5 4.7-1.4 11.2-2.5 2-.4 5.8-1 11.3-2.1 4.6-.8 7.2-1.2 7.6-1.2.6-.1 2.3.5 5 1.7 3.8 1.5 7 5 9.5 10.6.3.3.7 3 1.2 8.1z"/><path class="st1" d="M400 192.3l-10.9-103c0-.4-.3-1.7-.8-3.7-.5-2.1-.9-3.4-1.1-3.9-.2-.1-.5-.3-1-.6-5 1.1-12.9 2.5-23.6 4.3 0 4.5.5 10.8 1.3 18.7.9 8.7 6.8 38.7 17.7 90.2l18.4-2z"/><path class="st0" d="M418.7 222.1c.5 4.3-1.1 8.3-4.7 12-3.6 3.7-7.2 5.7-11 6.1-4.3.5-8.8-1.2-13.5-4.8-4.6-3.7-7.2-7.8-7.7-12.5-.5-4.9.8-9.3 3.9-13.1 3.1-3.8 7.1-6 12-6.5 5.8-.6 10.6 1.1 14.6 5.3 3.8 3.5 5.9 8.1 6.4 13.5z"/><path class="st1" d="M407.7 219.6c-.9-8.2-3.8-12.1-8.7-11.6-3.5.4-6.5 1.7-9 4-2.8 2.8-4 6-3.6 9.6.3 2.6 1.9 5.1 4.9 7.4 3 2.3 5.8 3.3 8.4 3.1 6.2-.7 8.8-4.9 8-12.5zm-8.3-122.4c-.4-3.6-.8-5.9-1.2-6.9-.6-2-2.3-4.7-5-8.2l11.7 111c1.3.6 2.5.8 3.6.7.1.9-.1-1.4-.7-6.7l-1.6-14.7c-.3-2.6-.7-6.9-1.4-12.8-.3-2.9-.7-6.6-1.2-11.3-.5-4.6-.7-7-.8-7.2l-2.2-20.4c-.1-.4-.3-4.4-.7-11.8-.2-7.3-.5-11.2-.5-11.7zM415 221.9c-.2-3.1-.8-5-1.9-5.9-1.6-1.3-2.4-2-2.4-2.2 1.2 7.2 1.2 11.7.1 13.6l2.3 1.3c1.4-2.8 2.1-5.1 1.9-6.8z"/><path class="st0" d="M385.6 189.2c-.1-.6-.5-1.3-1-2.2-.5-.8-.6-1.1-.6-1.1v-.1c-2.8-8.2-5.6-16.7-8.7-26.2-3.6-10.9-6.8-19.6-9.6-25.9-6-14.2-8.2-15.3-9.9-15.3-.2 0-.4 0-.5.1-.6.1-1.2.5-1.9 1.1-.5.4-.7.5-.7.5-2.2.5-5 1.7-8.6 3.5-4.3 2.1-6.7 3.8-7.7 5.4-1.2 2.2-2.2 4.7-2.8 7.4-.2.9-.5 2.4-.9 4.8-1.2-1.2-2.3-2.4-3.5-3.6-4.1-3.9-5.7-4.4-6.7-4.4-.2 0-.4 0-.6.1-5.4 1.3-12.1 4.1-19.9 8.3-.7.4-1.4 1.2-3.8 6.9s-2.4 6.9-2.2 7.6c.7 2.8 3.8 11.4 9.6 26.5 4.1 11.2 7.1 19.2 9.1 24.4 1.2 3.2 2.4 6.4 3.5 9.5v.1c2.3 5.1 4.4 7.4 6.7 7.4.2 0 .5 0 .7-.1 1.3-.3 3.1-.9 5.6-1.9 2.3-.9 4.1-1.5 5.3-1.8 6.4-1.5 8.1-2.6 8.9-3.3 1.9-1.5 3-4.3 3.5-8.6.5.6 1 1.2 1.5 1.7 2.1 2.5 4.3 3.6 6.5 3.1.7-.2 1.8-.5 3.2-1 1.3-.4 2.4-.8 3.1-.9 1.4-.3 3.3-.7 5.6-1.2 2.3-.4 4-.8 5-1 4.2-1 7-2.5 8.7-4.7 2.2-2.7 3.3-6.7 3.4-12.4 0-.9-.1-1.9-.3-2.7z"/><path class="st1" d="M326.2 212c-.2-1-.9-2.5-2-4.6-1.1-2-1.8-3.5-2.1-4.4-1.9-4.9-4.7-12.4-8.4-22.5-2.2-7.6-5.7-18.2-10.6-31.8-.4 1.8-1.2 4.3-2.5 7.5.9 2.7 2.5 6.8 4.9 12.4 3.1 7.3 4.8 11.4 5.2 12.4 1.7 5 4.3 12.4 7.9 22.3 1.4 2.7 3.3 7 5.7 12.7 1.3-2.6 1.9-3.9 1.9-4zm53.3-22.4l-.2-.8c-.9-3.8-4.5-14-10.8-30.8-1.3-3.6-5.6-15.1-12.9-34.5-1.4 1.2-3.7 2.4-7 3.8-2.6 1-5.2 2.1-7.7 3.2 1.2 4.4 4.3 12.3 9.2 23.9 4.4 10.6 7.2 18.6 8.4 24l.4 1.5c-.5.7-1 1.1-1.5 1.2-1.3.3-3.8-1.8-7.3-6.4-2.1-3-4.3-6-6.4-9.1-9-12.3-16-21.4-21.2-27.3-7.6 3.4-13.4 5.7-17.5 7l.2.8c.3 1.1.9 2.7 2 4.9 1.4 2.7 2.2 4.3 2.5 4.8.3.5 3.1 8.8 8.5 24.7 2.3 6.3 5.9 15.6 10.8 28.1.4.1.8 0 1.2-.1 1-.2 2.6-.8 4.7-1.7 2.1-.9 3.7-1.5 4.8-1.7 1.1-.3 2.3-.9 3.7-1.9-1-2.3-2.4-5.6-4.3-10.1-.3-.4-2.4-4.3-6.3-11.7-2.6-4.8-4.2-8.8-5-12-.4-1.6 0-2.5 1.2-2.8 1-.2 5.6 4.5 13.9 14.1 4.9 5.8 9.7 11.6 14.6 17.5.8 0 1.3-.1 1.7-.2 2.6-.6 6-2 10.2-4.2 4.6-2.1 7.9-3.5 10.1-4.2z"/><path class="st1" d="M355.1 201.3c-.2-.7-6.1-7.6-17.8-20.7l.2.9c.9 3.9 3.4 8.5 7.4 13.8 3.3 4.2 6.5 8.4 9.7 12.5l.5-6.5zm-3-31.1c-4.9-10.6-9.4-21.6-13.4-33-1.4 2.8-1.9 5.1-1.5 6.7 1 4.3 6 13.1 14.9 26.3z"/><path class="st0" d="M323.1 170.2c-.4-1.8-1.5-4.5-3.1-8.2-1.8-4-3.3-6.6-4.5-7.9l-.3-.3h-.5c-10.3.3-18.2.7-23.4 1.2l-.9.1v.9c-.4 8.8-.7 17.5-1.1 26.1-1.4 18.4-3.9 21-4.8 21.2-.3.1-.5.1-.8.1-1.6 0-2.9-1.6-3.7-4.8-.6-2.3-.9-5.1-.9-8.3 0-.7.1-3.7.6-13.7.7-11.6.7-11.8.6-12.1-.1-.3-.2-.7-3.3-4.6-3-3.8-3.7-4.4-3.8-4.5-1.6-1.6-5.5-1.9-12.3-1-4.3.7-8.5 1.4-12.9 2.1l-.5.1-.2.5c-2.3 5.2-3.4 13.9-3.5 26.4-.1 11.5.6 20.6 2.2 27.2.5 2.2 1.6 5.1 3.1 8.5 1.8 3.8 3.4 6.3 4.8 7.6 4.9 4.4 10.7 7.4 17.3 8.8 3.1.7 6.2 1 9.3 1 3.5 0 7-.4 10.5-1.3 3.8-.9 7.3-2.4 10.7-4.3 8.2-5.1 14.3-12.4 18.1-21.8 1-2.4 1.7-5.2 2.2-8.4.3-2.7.7-5.5 1-8.4.9-10.9 1.1-18.2.1-22.2z"/><path class="st1" d="M310.4 158.6c-3.3.4-8.3.9-14.8 1.6-.5 5.7-1 14.2-1.5 25.6-.2 6.6-.9 11.4-2.1 14.6-1.8 5.3-5.2 8.5-10.1 9.7-7.1 1.7-11.8-2.2-14.1-11.8-.6-2.5-1-6.9-1.2-13.2-.1-6 0-10.4.2-13.4.4-2.7.8-6.7 1-12.1-1.9-.3-4-.2-6.4.3 2.5-.5.4 0-6.3 1.7-.4.1-.9.1-1.7-.1-.7-.2-1.3-.2-1.6-.1-1.8.4-2.8 7.7-3 21.7-.2 10.6.9 20.4 3.1 29.5.4 1.6 2.1 4.2 5.2 7.9 1.3 1.7 3.3 3.8 6 6.3 2.6 1.4 6.1 2.3 10.5 2.7 4.1.3 7.8 0 11.1-.8 8.7-2.1 15.5-7.3 20.3-15.6 4.4-7.5 6.4-15.9 6-25.2-.1-1.3.1-6.2.6-14.6.1-6.2-.3-11.1-1.2-14.7z"/><path class="st0" d="M270.8 125.6c.9 2 1.5 4.8 2.1 8.5l1.5 8.9c-5.3 3.1-17.8 8.1-37.5 15.2-.2.1-4 1.9-11.5 5.4.3.9.6 2.1 1 3.6 4.5-1 8.9-2.1 13.2-3.1 4.4-.4 8.3 1.7 11.8 6.2.3.4.7 1.5 1.4 3.3 2.4 6.4 3.8 10.8 4.4 13.3-.8.9-2.9 2.1-6.4 3.6-3.5 1.5-6.9 3-10.2 4.5-3.3 1.5-5 2.2-5.1 2.2.5 4.2 1.8 11.4 4 21.6 2.1 9.2 3.2 16.4 3.3 21.7.2 3.1-.2 4.8-1 5.1-.8.3-2.1.9-3.7 1.8s-2.9 1.5-3.9 1.9c-6.4 2.4-10.9 3.6-13.5 3.8-1.8.1-4.4-1.6-7.9-5.1-3.2-3.2-5.2-5.7-5.9-7.6-1.5-4.1-6.4-21.5-14.6-52.2-8.2-30.8-12.2-46.7-12-47.9.2-1.2 1.3-2.1 3.3-2.9.6-.2 1.7-.5 3.3-.8 1.5-.3 2.7-.5 3.4-.8 30.2-11.2 53.4-17.9 69.5-19.9 1.2-.1 4.5 2.4 10.1 7.5l.9 2.2z"/><path class="st1" d="M255.6 123.3c-11.6 3-23.2 6-34.8 9.1-14.7 3.9-26.4 7.4-35.1 10.7l26.6 95.8c0 .4.2.9.7 1.6.4.7.7 1.2.8 1.5 1.8-.7 4.5-1.6 8-2.8 3.6-1.2 6.2-2.1 7.9-2.7-3.2-10.6-7.3-25.9-12.4-46-.2-1.6.5-2.7 2.2-3.4 1-.4 2.4-.8 4.4-1.3 2-.5 3.5-.9 4.4-1.3 1.5-.6 3.7-1.5 6.7-2.8 3-1.3 5.2-2.2 6.7-2.8 0-.9-.9-3.8-2.7-8.8l-1.4.5c-2.1.9-6.1 1.9-12.2 3.1-6.6 1.4-10.5 1.8-11.6 1.2-3.5-12.1-4.6-18.6-3.2-19.5 4.5-3.1 20.8-9.3 48.6-18.6.1-2.2-1.1-6.7-3.6-13.5z"/><path class="st1" d="M229.5 197.3l-5.3-3.1c1.7 6.2 4.3 15.5 7.9 28 .4 1.4.9 3.9 1.4 7.4.5 3.5 1.1 6.1 1.7 7.8.1.3.7 1.1 1.8 2.2 1.1 1.2 1.8 1.9 2 2.2-1.8-8.2-4.5-20.5-8-36.9-1.4-5.9-1.8-8.5-1.5-7.6zm-9.3-34.4c-.2-.4-1.5-1.5-4.1-3.2.8 3.5 1.4 6.7 1.9 9.7l2.9-1.1c-.6-3.9-.8-5.7-.7-5.4zm31 19.2l-3.3-9c-.2-.4-.9-1-2.2-1.8-1.3-.8-2.1-1.3-2.3-1.4.4.8.8 2 1.1 3.4.3 1.5.6 2.5.8 3.2.6 1.5 1.4 2.6 2.4 3.4 1.1.7 2.2 1.5 3.5 2.2zm14.8-55.7c.1.1-1.2-1.1-3.8-3.5.6 1.6 1.3 4.2 2 7.7.8 3.5 1.3 5.8 1.7 6.9.2.4.6.8 1.3 1.1 1 .6 1.5 1 1.7 1-1.5-7.7-2.5-12.2-2.9-13.2z"/></svg>