<?xml version="1.0" encoding="utf-8"?>
<!-- Generator: Adobe Illustrator 27.6.1, SVG Export Plug-In . SVG Version: 6.00 Build 0)  -->
<svg version="1.1" id="Layer_1" xmlns="http://www.w3.org/2000/svg" xmlns:xlink="http://www.w3.org/1999/xlink" x="0px" y="0px"
	 width="28.5px" height="36.4px" viewBox="0 0 28.5 36.4" style="enable-background:new 0 0 28.5 36.4;" xml:space="preserve">
<style type="text/css">
	.st0{fill:#4B3048;}
</style>
<g>
	<path class="st0" d="M16.3,27.1c6.1-0.9,10.8-6.2,11-12.4c0.2-5.4-2.7-10.2-7.6-12.4c-1.1-0.5-2.2-0.8-3.4-1
		c-3.2-0.5-6.5,0.2-9.2,2c-4.3,2.8-6.6,8-5.7,13.1C2.6,23.5,9.1,28.1,16.3,27.1z M14.3,4.3c5.4,0,9.9,4.6,9.9,9.9
		c-0.1,5.6-4.4,9.9-9.9,9.9C8.7,24,4.3,19.6,4.4,14C4.4,8.7,8.9,4.2,14.3,4.3z"/>
	<path class="st0" d="M13.5,21.7c3.4,0.3,6.2-1.4,6.6-5.1c0.2-1.7,0.1-3.4,0.1-5.2c0-1.1,0-2.2,0-3.3h-3.5v0.7c0,2.4,0,4.8,0,7.1
		c0,1.4-0.8,2.3-1.9,2.4c-1.6,0.1-2.5-0.4-2.8-1.6c-0.1-0.4-0.1-0.8-0.1-1.3c0-2.2,0-4.4,0-6.6V8.1H8.4c0,2.6,0,5.2,0,7.8
		C8.5,18.9,10,21.3,13.5,21.7z"/>
	<path class="st0" d="M4.6,30.7c-0.3-0.3-0.8-0.5-1.4-0.5h-2v5.2h0.9v-1.9h1.1c0.6,0,1.1-0.1,1.4-0.4c0.3-0.3,0.5-0.7,0.5-1.2
		C5.1,31.4,4.9,31,4.6,30.7z M3.9,32.5c-0.2,0.2-0.4,0.2-0.7,0.2H2.1v-1.8h1.1c0.3,0,0.5,0.1,0.7,0.3c0.2,0.2,0.3,0.4,0.3,0.7
		C4.2,32.2,4.1,32.4,3.9,32.5z"/>
	<path class="st0" d="M6.8,30.2l-2,5.2h0.9l0.4-1.2h2l0.4,1.2h0.9l-2-5.2H6.8z M6.4,33.5l0.8-2.2L8,33.5H6.4z"/>
	<path class="st0" d="M13.5,32.7c0.2-0.2,0.3-0.5,0.3-0.9c0-0.5-0.2-0.9-0.5-1.2c-0.3-0.3-0.8-0.4-1.4-0.4H10v5.2H11v-2h1l1.1,2h1v0
		l-1.2-2.2C13.1,33.1,13.4,32.9,13.5,32.7z M11.9,32.7H11v-1.8h1c0.3,0,0.6,0.1,0.7,0.2c0.2,0.2,0.2,0.4,0.2,0.7
		c0,0.3-0.1,0.5-0.3,0.6C12.4,32.6,12.2,32.7,11.9,32.7z"/>
	<polygon class="st0" points="15.6,33.1 17.7,33.1 17.7,32.4 15.6,32.4 15.6,30.9 18.1,30.9 18.1,30.2 14.7,30.2 14.7,35.4 
		18.1,35.4 18.1,34.7 15.6,34.7 	"/>
	<polygon class="st0" points="21,34.3 19.6,30.2 18.7,30.2 20.5,35.4 21.4,35.4 23.3,30.2 22.3,30.2 	"/>
	<polygon class="st0" points="24.8,33 26.9,33 26.9,32.3 24.8,32.3 24.8,30.9 27.3,30.9 27.3,30.1 23.9,30.1 23.9,35.4 27.3,35.4 
		27.3,34.7 24.8,34.7 	"/>
</g>
</svg>
