<?xml version="1.0" encoding="UTF-8"?>
<svg id="b" data-name="Layer 2" xmlns="http://www.w3.org/2000/svg" width="181.4" height="300.3" viewBox="0 0 181.4 300.3">
  <g id="c" data-name="Layer 1">
    <g>
      <path d="m151.8,266.3c-1-1.3-1.3-2.8-1.3-4.4v-119.7c0-1.8.4-3.5,1.6-4.9,1.7-2.2,2.1-4.6.4-7.2-.3-.5-1-1-1.5-1.1-1.4-.2-2.8-.3-4.2-.3h-16c-.7,0-1.4,0-2.1.2-.5.2-1.1.6-1.4,1.1-1.3,2-1.4,4.1,0,6.2.4.6.7,1.2,1.2,1.8.9,1.2,1.2,2.5,1.2,4v49.9c0,1.9-.2,2.1-2.1,2.1h-19.1c-2,0-2.3-.4-1.7-2.3,2.8-9.5,5.6-19,8.4-28.5,2.3-7.7,4.6-15.4,6.9-23.1,2.5-8.5,5-16.9,7.5-25.4,4.3-14.4,8.5-28.7,12.8-43.1.4-1.5,1.1-2.7,2.4-3.6.9-.6,1.9-1.4,2.1-2.5-.8-2.3-2.4-3-4.5-3-5.6.1-11.1,0-16.7,0h-7.5c-1.5,0-2.8.5-3.7,1.8-.6.9-.7,1.6.1,2.3.8.8,1.7,1.5,2.6,2.2.8.6,1,1.3.8,2.2-.1.4-.2.9-.3,1.3-1.6,6.2-3.3,12.3-4.9,18.5-1.9,7.3-3.6,14.5-5.5,21.8-1.3,5.2-2.8,10.5-4.1,15.7-1.1,4.4-2.1,8.8-3.3,13.2-1,3.7-2.1,7.4-3.1,11.1-.6,2.5-1.1,5-1.7,7.4-.1.5-.4,1-.6,1.5h-.4c-.2-.4-.5-.8-.7-1.2-2.2-6.5-4.4-13.1-6.6-19.6-1.5-4.5-3-8.9-4.4-13.4-4.4-13.2-8.8-26.5-13.2-39.7-1.3-3.9-2.6-7.7-3.9-11.6-.5-1.5-1.1-3-1.5-4.5-.5-1.6-.3-1.9,1-2.8.7-.5,1.4-1,2.1-1.6.6-.6.9-1.4.4-2.2-.6-1.1-1.3-2-2.6-2.1-.8,0-1.6-.2-2.4-.2h-23.7c-1.6,0-2.9.7-3.7,2.1-.4.7-.4,1.3.1,1.8.7.7,1.5,1.3,2.2,2,.6.6,1.3,1.3,1.5,2,2.6,7.5,5.2,14.9,7.8,22.4,3.6,10.6,7.3,21.2,10.9,31.8,4.8,13.9,9.5,27.8,14.3,41.7,3,8.7,6,17.4,8.9,26.1.1.4.2.8.3,1.1-1.2.6-27.8.6-29,0,0-.3-.1-.7-.1-1.1v-49.5c0-2.1.3-4.1,1.8-5.7.5-.5.7-1.2,1.1-1.8,1.3-2.3.3-4-.9-5.9-.2-.3-.7-.5-1.1-.5-1.3-.1-2.6-.2-3.8-.2h-15.7c-.9,0-1.8.1-2.7.3-.5.1-1.1.5-1.4.9-1.3,2-1.7,4.1-.3,6.2.3.4.5,1,.9,1.4,1.3,1.5,1.5,3.4,1.6,5.3v117.9c0,2.4-.6,4.5-2.1,6.5-1.8,2.3-1.8,4.4-.2,6.9.5.7,1.1,1.1,1.9,1.1h21.3c.5,0,1.2-.3,1.5-.7,1.8-2.4,1.9-4.3.7-6.4-.4-.6-.7-1.2-1.2-1.8-1.1-1.4-1.5-2.9-1.5-4.7v-46.2c0-.5.1-1,.2-1.5,1.5-.1,2.9-.3,4.3-.3h30.2c1.1,0,1.7.4,2.1,1.5,1.6,4.8,3.2,9.5,4.9,14.3.2.6.6,1.1,1,1.7.2,0,.3,0,.5-.1.3-.7.6-1.4.9-2.1,1.4-4.6,2.7-9.2,4.1-13.8.3-1.2,1-1.6,2.2-1.6h25.4c.8,0,1.5.2,2.4.4v46.7c0,2.5-.6,4.5-2.1,6.5-1.8,2.4-1.8,4.2-.2,6.7.5.8,1.1,1.2,2,1.2h20.6c1.8,0,2.2-.4,2.9-2,.9-2,.8-3.8-.4-5.5-.3-.4-.6-.9-.9-1.4Z" fill="#4b3048"/>
      <path d="m73.7,26.5c1.6.6,1.4,1.8,1.4,3.1v20.4c0,2.2.5,4.6-2,5.9-.1,0,0,.2-.1.6h13.8c-.6-.7-1-1-1.2-1.4-.4-.7-1.1-1.5-1.2-2.2-.1-2.9.2-5.7.1-8.6-.1-2.5,1.7-3.9,3.3-4.4,1-.3,3.4,1,3.9,2.1,1.9,4.2,3.3,8.6,4.8,12.9-.4.5-1.1,1.6-1.1,1.6h11.8s-2.7-2.5-3.4-4.2c-2.5-5.6-5.4-9.9-7.8-15.8,3.7-3.1,8-7.6,11.6-10.7-.1-.2-.2-.4-.3-.5h-13.2c.4,1,.7,1.8,1,2.7-3.4,2.8-6.8,5.7-10.3,8.5-.2-.1-.4-.2-.6-.3.8-3.6-1.4-7.6,2.4-10.9h-13.8c.6.7.7,1.1.9,1.2Z" fill="#4b3048"/>
      <path d="m163.8,0H17.6C7.9,0,0,7.9,0,17.6v265.1c0,9.7,7.9,17.6,17.6,17.6h146.2c9.7,0,17.6-7.9,17.6-17.6V17.6c0-9.7-7.9-17.6-17.6-17.6Zm4.6,282.7c0,2.5-2.1,4.6-4.6,4.6H17.6c-2.5,0-4.6-2.1-4.6-4.6V17.6c0-2.5,2.1-4.6,4.6-4.6h146.2c2.5,0,4.6,2.1,4.6,4.6v265.1Z" fill="#4b3048"/>
    </g>
  </g>
</svg>