<svg version="1.1" id="Layer_1" xmlns="http://www.w3.org/2000/svg" xmlns:xlink="http://www.w3.org/1999/xlink" x="0" y="0" width="60" height="60" viewBox="0 0 60 60" xml:space="preserve"><g transform="translate(0 .105)" id="Group_994"><defs><path id="SVGID_1_" d="M4.8 4.9h50v50h-50z"/></defs><clipPath id="SVGID_00000142892098454704534310000015215531707719316873_"><use xlink:href="#SVGID_1_" overflow="visible"/></clipPath><g id="Group_993" clip-path="url(#SVGID_00000142892098454704534310000015215531707719316873_)"><path id="Path_936" fill="#ECE2D9" d="M43.9 18.6h-7.2c-.2 0-.3 0-.5.1-3.5 2.3-7 4.5-10.5 6.8-.1 0-.1.1-.3.1v-6.8c0-.3 0-.3-.3-.3h-8.3c-.3 0-.3 0-.3.3v22.1c0 .2 0 .3.3.3h8.3c.3 0 .3 0 .3-.3V30.7c.1 0 .2.1.2.2 2.9 3.4 5.9 6.8 8.8 10.2.1.1.2.2.4.2h11.7L33.2 25.6l10.7-7"/></g></g><path fill="#4B3048" d="M54.9 28.9c-.1-3.8-1.2-7.5-3-10.8-3-5.6-8-9.9-14.1-11.9-1.6-.5-3.2-.9-4.8-1.1-.7 0-1.5-.1-2.2-.1h-2C25 5.1 21.3 6.1 18 7.9c-5.5 2.9-9.7 7.8-11.7 13.7-.6 1.7-1 3.4-1.2 5.2-.1.8-.2 1.5-.2 2.2v2c.1 3.8 1.2 7.5 3 10.8 3 5.6 8 9.9 14.1 11.9 1.7.6 3.4 1 5.2 1.1.6.1 1.2.1 1.8.1h2c3.8-.1 7.5-1.2 10.8-3 5.5-2.9 9.7-7.8 11.7-13.7.6-1.7 1-3.4 1.2-5.2.1-.7.1-1.4.2-2.2v-1.9zm-25 22.5C18 51.4 8.5 41.8 8.5 29.9c0-5 1.8-9.7 4.7-13.3l30.1 30.1c-3.7 2.9-8.4 4.7-13.4 4.7zm16.2-7.5L15.9 13.8c3.8-3.2 8.6-5.2 14-5.2 11.8 0 21.4 9.6 21.4 21.4 0 5.3-2 10.2-5.2 13.9z"/></svg>