<svg version="1.1" id="Layer_1" xmlns="http://www.w3.org/2000/svg" x="0" y="0" width="60" height="60" viewBox="0 0 60 60" xml:space="preserve"><path id="Union_10" fill="#4B3048" d="M18.4 55c-3 0-5.4-2.4-5.4-5.4V10.3c0-3 2.4-5.4 5.4-5.4h23c3 0 5.4 2.4 5.4 5.4v2.5c0 .7-.6 1.3-1.3 1.3-.7 0-1.3-.6-1.3-1.3v-2.5c0-1.5-1.2-2.7-2.7-2.7h-23c-1.5 0-2.7 1.2-2.7 2.7V23h28.4v-4.5c0-.7.6-1.3 1.3-1.3.7 0 1.3.6 1.3 1.3v30.9c0 3-2.4 5.4-5.4 5.4l-23 .2zm-2.7-5.4c0 1.5 1.2 2.7 2.7 2.7h23c1.5 0 2.7-1.2 2.7-2.7V25.7H15.7v23.9zm3-13v-6.8c0-.7.6-1.3 1.3-1.3.7 0 1.3.6 1.3 1.3v6.8c0 .7-.6 1.3-1.3 1.3-.7 0-1.3-.5-1.3-1.3zm0-17.6v-4.9c0-.7.6-1.3 1.3-1.3.7 0 1.3.6 1.3 1.3V19c0 .7-.6 1.3-1.3 1.3-.7 0-1.3-.6-1.3-1.3z"/></svg>