<svg version="1.1" id="Layer_1" xmlns="http://www.w3.org/2000/svg" x="0" y="0" width="60" height="60" viewBox="0 0 60 60" xml:space="preserve"><path d="M47.7 48.7c-.7 0-1.3.6-1.3 1.3v2c0 .2-.2.4-.4.4H14c-.3 0-.4-.2-.4-.4V23.9l1.8-1.7c.4-.5.4-1.3-.1-1.8s-1.3-.6-1.9-.1l-9.6 9.1c-.3.2-.4.6-.4.9 0 .4.1.7.4 1 .2.3.6.4.9.4.3 0 .7-.1 1-.4l5.2-4.9v27.3c0 .7.6 1.3 1.3 1.3h35.6c.7 0 1.3-.6 1.3-1.3V50c-.1-.8-.7-1.3-1.4-1.3zM56 29.5l-25.2-24c-.5-.5-1.4-.5-1.9 0L17.5 16.4c-.4.5-.4 1.3.1 1.8s1.3.6 1.9.1l9.7-9.2c.4-.4 1.1-.4 1.5 0l15.7 15V44c0 .7.6 1.3 1.3 1.3.7 0 1.3-.6 1.3-1.3V26.5l5.2 4.9c.3.3.6.4.9.4.4 0 .7-.2.9-.4.2-.3.4-.6.4-1 0-.3-.1-.7-.4-.9z"/></svg>