<svg version="1.1" id="Layer_1" xmlns="http://www.w3.org/2000/svg" x="0" y="0" width="1678.4" height="804.3" viewBox="0 0 1678.4 804.3" xml:space="preserve"><g fill="#62CBC9"><path d="M379.7 116.1c2.1 5.3.5 11.5-5 13.7-5.6 2.3-11.6-.1-19.7 3.2-5.8 2.4-9.9 7.6-7.6 13.3 5.7 14 47.4-13.3 61.6 21.7 7.9 19.4-3.3 38-22 45.6-10.5 4.2-34 10.9-39.2-1.9-2.1-5.3-.4-11.1 5.2-13.3 6.4-2.6 16.1-.4 25-3.9 9-3.6 11.8-10.6 9.1-17.3-6.5-16-48 12-60.7-19.6-7.7-19 3.2-37.2 21.2-44.5 7.6-2.9 27.7-7.7 32.1 3zm24.6 15.8c-2.1-6.7.7-12.5 6.6-14.3 5.2-1.6 9.4.1 11.6 4.7 3.2-6.9 8.7-11.9 16.1-14.3 8.4-2.6 16.6-1.4 24 3.7 3.6-8.2 11.2-14.7 18-16.9 16.4-5.1 30.5.9 36.1 18.5l12.1 38.6c2.1 6.7-.7 12.5-6.6 14.3-5.9 1.8-11.5-1.3-13.6-8l-11-35.1c-2.5-8.1-8.8-12.4-16.1-10.2-7.4 2.3-10.1 9.5-7.5 17.6l11 35.1c2.1 6.7-.7 12.5-6.6 14.4-5.9 1.8-11.5-1.3-13.6-8l-11-35.1c-2.5-8.1-8.8-12.4-16.1-10.2-8.3 2.6-10.1 9.5-7.5 17.6l11 35.1c2.1 6.7-.7 12.5-6.6 14.3-5.9 1.8-11.5-1.3-13.6-8l-16.7-53.8zm197.2-24.2c4.7 21.5-6 42.9-28.2 47.8-22.2 4.9-40.9-10-45.7-31.5-4.6-20.9 6.4-43.3 28.1-48.1 21.8-4.8 41.2 10.9 45.8 31.8zm-53.3 11.7c2.2 9.9 9.7 19.6 20.9 17.1s13.9-14.5 11.7-24.4c-2.2-9.9-9.7-19.9-21-17.4-11.2 2.6-13.7 14.9-11.6 24.7zm132-23.5c3.2 21.8-9 42.4-31.5 45.7-22.5 3.3-40.1-12.9-43.3-34.7-3.1-21.2 9.4-42.7 31.5-45.9 22-3.3 40.2 13.8 43.3 34.9zm-54 8c1.5 10 8.3 20.3 19.6 18.6 11.3-1.7 14.9-13.4 13.4-23.4-1.5-10-8.2-20.6-19.7-18.9-11.3 1.6-14.7 13.7-13.3 23.7zm64.1-29.2l-4.7.4c-5.7.5-9.5-2.7-10-8.4-.5-5.3 3.1-9.6 8.4-10l4.7-.4-1.1-12.6c-.6-7 3.3-12.1 9.5-12.6 6.1-.6 10.9 3.7 11.6 10.7l1.1 12.6 6-.5c5.4-.5 10.3 1.6 10.9 8.3.6 6.6-3.9 9.6-9.3 10.1l-6 .5 4.3 48.5c.6 7-3.3 12.1-9.5 12.6-6.1.5-10.9-3.7-11.6-10.7l-4.3-48.5zm35.9-45.2c-.2-7 4-11.9 10.2-12 6.2-.2 10.7 4.4 10.9 11.4l.9 28.7h.3c4.2-5.6 12.4-7.7 19-7.9 16.6-.5 29.2 9.7 29.7 27.5l1.2 40.4c.2 7-4 11.9-10.2 12-6.2.2-10.7-4.4-10.9-11.4l-1.1-36.8c-.3-9.8-6.6-14.3-14.2-14.1-8.6.3-13.3 6.7-13 14.9l1.1 36.8c.2 7-4 11.9-10.2 12-6.2.2-10.7-4.4-10.9-11.4l-2.8-90.1zm119.9 49.1c5.4.6 8.2 4.4 8 9.7-.2 5-3.2 8.5-8.7 8.8L814.2 96c-5.4-.6-8.2-4.4-8-9.4.2-5.3 3.3-8.8 8.7-9.1l31.2 1.1zm22-40.1c.6-6 5.2-11 12.5-10.3l37.3 3.6c6.4.6 9.3 5.9 8.8 11-.5 5-4.2 9.8-10.7 9.1l-26.8-2.6-2 21.3 22.6 2.2c7 .7 10 6 9.6 10.9-.5 5.1-4.5 9.9-11.5 9.2l-22.6-2.2-3 31.8c-.7 7.3-5.8 10.9-12 10.3-6.3-.6-10.6-5.1-9.9-12.4l7.7-81.9zm61 31.1c1.1-7 7.1-9.6 12.3-8.8 5.5.8 9.8 3.6 8.8 10.2h.3c4.8-5.2 9.4-7.5 16-6.5 5.1.8 9.6 5.2 8.4 12.7-1 6.8-7.3 6.3-14 8.2s-13.5 3.7-14.7 12l-4.9 32c-1.1 7-6.1 10.9-12.2 10-6.1-.9-9.7-6.2-8.7-13.2l8.7-56.6zm110.5 50.9c-4.6 21.5-23.3 36.5-45.5 31.7-22.2-4.8-33-26.2-28.4-47.7 4.5-20.9 23.8-36.7 45.6-32 21.7 4.7 32.8 27.1 28.3 48zM986.3 109c-2.1 9.9.7 21.9 11.8 24.3 11.2 2.4 18.7-7.4 20.8-17.2 2.1-9.9-.5-22.1-11.8-24.6s-18.7 7.6-20.8 17.5zm95.2 2.4l-23.5-6.9c-5.1-1.5-8.2-5.9-6.5-11.6 1.7-5.6 6.7-7.6 11.8-6.2l46 13.6c1.8.5 6.4 2.8 4.7 8.3-.8 2.7-1.7 3.8-3.9 5.4l-45.1 35.3 26.7 7.9c5.1 1.5 8.2 5.9 6.5 11.6-1.7 5.6-6.7 7.6-11.8 6.2l-47.1-13.9c-4.5-1.3-7.6-4.7-6.3-9.3.7-2.2 2.4-4 3.4-4.9l45.1-35.5zm44 43.3c-2.3 10.3 4.1 17.8 13.3 21.3 10.2 3.8 20.1-1.5 25.4.4 4.3 1.6 6.5 7.3 4.9 11.5-3.2 8.5-23.8 10.1-38.5 4.6-22.2-8.4-31-30.1-22.8-51.9 7.5-20 28.9-32.8 49.8-25 21.4 8 28.2 32.8 22 49.3-2.2 5.9-5.9 7.8-11.9 5.5l-42.2-15.7zm36-1.6c2.2-9.1-.9-17.6-10.1-21-8.8-3.3-17.2 1.2-21.3 9.2l31.4 11.8zm34.2-9.2c3-6.4 8.9-8.8 14.5-6.2 4.9 2.3 6.9 6.4 5.5 11.1 6.1-3.5 13.1-3.5 22.1.7 15 7 21.8 21.7 14.3 37.9l-17 36.7c-3 6.4-8.9 8.8-14.5 6.2-5.6-2.6-7.6-8.7-4.7-15.1l15.5-33.4c4.1-8.9.5-15.8-6.4-19-7.8-3.6-14.9.1-18.3 7.5l-15.5 33.4c-3 6.4-8.9 8.8-14.5 6.2-5.6-2.6-7.6-8.7-4.7-15.1l23.7-50.9zm92.4 15.8c11.6 1.6 19.8 12.4 18.1 24s-12.4 19.7-24 18.1c-11.6-1.6-19.7-12.4-18.1-24 1.6-11.6 12.4-19.7 24-18.1zm-5.4 38.7c9.4 1.3 18.3-5.5 19.7-15.2 1.4-9.7-5.4-18.7-14.8-20-9.4-1.3-18.3 5.5-19.7 15.2-1.3 9.7 5.5 18.7 14.8 20zm-3.4-7.7c-.2 1.3-1 2.3-2.1 2.1-1.1-.2-1.6-1.3-1.4-2.6l3-21.4c.1-.6.4-1 1.2-.8l8.2 1.1c5.6.8 8.1 3.4 7.5 8-.6 4.4-3.7 5.9-6.8 5.9l4 8.7c.3.7.6 1.3.5 1.9-.1.7-.8 1.4-1.9 1.2-.7-.1-1.4-.5-1.8-1.7l-4.6-10.5-4.5-.6-1.3 8.7zm1.6-11.5l4.3.6c3.4.5 6.5.7 7-3.3.5-3.3-2.3-4.3-5-4.7l-5.2-.7-1.1 8.1z"/><path d="M379.7 116.1c2.1 5.3.5 11.5-5 13.7-5.6 2.3-11.6-.1-19.7 3.2-5.8 2.4-9.9 7.6-7.6 13.3 5.7 14 47.4-13.3 61.6 21.7 7.9 19.4-3.3 38-22 45.6-10.5 4.2-34 10.9-39.2-1.9-2.1-5.3-.4-11.1 5.2-13.3 6.4-2.6 16.1-.4 25-3.9 9-3.6 11.8-10.6 9.1-17.3-6.5-16-48 12-60.7-19.6-7.7-19 3.2-37.2 21.2-44.5 7.6-2.9 27.7-7.7 32.1 3zm24.6 15.8c-2.1-6.7.7-12.5 6.6-14.3 5.2-1.6 9.4.1 11.6 4.7 3.2-6.9 8.7-11.9 16.1-14.3 8.4-2.6 16.6-1.4 24 3.7 3.6-8.2 11.2-14.7 18-16.9 16.4-5.1 30.5.9 36.1 18.5l12.1 38.6c2.1 6.7-.7 12.5-6.6 14.3-5.9 1.8-11.5-1.3-13.6-8l-11-35.1c-2.5-8.1-8.8-12.4-16.1-10.2-7.4 2.3-10.1 9.5-7.5 17.6l11 35.1c2.1 6.7-.7 12.5-6.6 14.4-5.9 1.8-11.5-1.3-13.6-8l-11-35.1c-2.5-8.1-8.8-12.4-16.1-10.2-8.3 2.6-10.1 9.5-7.5 17.6l11 35.1c2.1 6.7-.7 12.5-6.6 14.3-5.9 1.8-11.5-1.3-13.6-8l-16.7-53.8zm197.2-24.2c4.7 21.5-6 42.9-28.2 47.8-22.2 4.9-40.9-10-45.7-31.5-4.6-20.9 6.4-43.3 28.1-48.1 21.8-4.8 41.2 10.9 45.8 31.8zm-53.3 11.7c2.2 9.9 9.7 19.6 20.9 17.1s13.9-14.5 11.7-24.4c-2.2-9.9-9.7-19.9-21-17.4-11.2 2.6-13.7 14.9-11.6 24.7zm132-23.5c3.2 21.8-9 42.4-31.5 45.7-22.5 3.3-40.1-12.9-43.3-34.7-3.1-21.2 9.4-42.7 31.5-45.9 22-3.3 40.2 13.8 43.3 34.9zm-54 8c1.5 10 8.3 20.3 19.6 18.6 11.3-1.7 14.9-13.4 13.4-23.4-1.5-10-8.2-20.6-19.7-18.9-11.3 1.6-14.7 13.7-13.3 23.7zm64.1-29.2l-4.7.4c-5.7.5-9.5-2.7-10-8.4-.5-5.3 3.1-9.6 8.4-10l4.7-.4-1.1-12.6c-.6-7 3.3-12.1 9.5-12.6 6.1-.6 10.9 3.7 11.6 10.7l1.1 12.6 6-.5c5.4-.5 10.3 1.6 10.9 8.3.6 6.6-3.9 9.6-9.3 10.1l-6 .5 4.3 48.5c.6 7-3.3 12.1-9.5 12.6-6.1.5-10.9-3.7-11.6-10.7l-4.3-48.5zm35.9-45.2c-.2-7 4-11.9 10.2-12 6.2-.2 10.7 4.4 10.9 11.4l.9 28.7h.3c4.2-5.6 12.4-7.7 19-7.9 16.6-.5 29.2 9.7 29.7 27.5l1.2 40.4c.2 7-4 11.9-10.2 12-6.2.2-10.7-4.4-10.9-11.4l-1.1-36.8c-.3-9.8-6.6-14.3-14.2-14.1-8.6.3-13.3 6.7-13 14.9l1.1 36.8c.2 7-4 11.9-10.2 12-6.2.2-10.7-4.4-10.9-11.4l-2.8-90.1zm119.9 49.1c5.4.6 8.2 4.4 8 9.7-.2 5-3.2 8.5-8.7 8.8L814.2 96c-5.4-.6-8.2-4.4-8-9.4.2-5.3 3.3-8.8 8.7-9.1l31.2 1.1zm22-40.1c.6-6 5.2-11 12.5-10.3l37.3 3.6c6.4.6 9.3 5.9 8.8 11-.5 5-4.2 9.8-10.7 9.1l-26.8-2.6-2 21.3 22.6 2.2c7 .7 10 6 9.6 10.9-.5 5.1-4.5 9.9-11.5 9.2l-22.6-2.2-3 31.8c-.7 7.3-5.8 10.9-12 10.3-6.3-.6-10.6-5.1-9.9-12.4l7.7-81.9zm61 31.1c1.1-7 7.1-9.6 12.3-8.8 5.5.8 9.8 3.6 8.8 10.2h.3c4.8-5.2 9.4-7.5 16-6.5 5.1.8 9.6 5.2 8.4 12.7-1 6.8-7.3 6.3-14 8.2s-13.5 3.7-14.7 12l-4.9 32c-1.1 7-6.1 10.9-12.2 10-6.1-.9-9.7-6.2-8.7-13.2l8.7-56.6zm110.5 50.9c-4.6 21.5-23.3 36.5-45.5 31.7-22.2-4.8-33-26.2-28.4-47.7 4.5-20.9 23.8-36.7 45.6-32 21.7 4.7 32.8 27.1 28.3 48zM986.3 109c-2.1 9.9.7 21.9 11.8 24.3 11.2 2.4 18.7-7.4 20.8-17.2 2.1-9.9-.5-22.1-11.8-24.6s-18.7 7.6-20.8 17.5zm95.2 2.4l-23.5-6.9c-5.1-1.5-8.2-5.9-6.5-11.6 1.7-5.6 6.7-7.6 11.8-6.2l46 13.6c1.8.5 6.4 2.8 4.7 8.3-.8 2.7-1.7 3.8-3.9 5.4l-45.1 35.3 26.7 7.9c5.1 1.5 8.2 5.9 6.5 11.6-1.7 5.6-6.7 7.6-11.8 6.2l-47.1-13.9c-4.5-1.3-7.6-4.7-6.3-9.3.7-2.2 2.4-4 3.4-4.9l45.1-35.5zm44 43.3c-2.3 10.3 4.1 17.8 13.3 21.3 10.2 3.8 20.1-1.5 25.4.4 4.3 1.6 6.5 7.3 4.9 11.5-3.2 8.5-23.8 10.1-38.5 4.6-22.2-8.4-31-30.1-22.8-51.9 7.5-20 28.9-32.8 49.8-25 21.4 8 28.2 32.8 22 49.3-2.2 5.9-5.9 7.8-11.9 5.5l-42.2-15.7zm36-1.6c2.2-9.1-.9-17.6-10.1-21-8.8-3.3-17.2 1.2-21.3 9.2l31.4 11.8zm34.2-9.2c3-6.4 8.9-8.8 14.5-6.2 4.9 2.3 6.9 6.4 5.5 11.1 6.1-3.5 13.1-3.5 22.1.7 15 7 21.8 21.7 14.3 37.9l-17 36.7c-3 6.4-8.9 8.8-14.5 6.2-5.6-2.6-7.6-8.7-4.7-15.1l15.5-33.4c4.1-8.9.5-15.8-6.4-19-7.8-3.6-14.9.1-18.3 7.5l-15.5 33.4c-3 6.4-8.9 8.8-14.5 6.2-5.6-2.6-7.6-8.7-4.7-15.1l23.7-50.9zm92.4 15.8c11.6 1.6 19.8 12.4 18.1 24s-12.4 19.7-24 18.1c-11.6-1.6-19.7-12.4-18.1-24 1.6-11.6 12.4-19.7 24-18.1zm-5.4 38.7c9.4 1.3 18.3-5.5 19.7-15.2 1.4-9.7-5.4-18.7-14.8-20-9.4-1.3-18.3 5.5-19.7 15.2-1.3 9.7 5.5 18.7 14.8 20zm-3.4-7.7c-.2 1.3-1 2.3-2.1 2.1-1.1-.2-1.6-1.3-1.4-2.6l3-21.4c.1-.6.4-1 1.2-.8l8.2 1.1c5.6.8 8.1 3.4 7.5 8-.6 4.4-3.7 5.9-6.8 5.9l4 8.7c.3.7.6 1.3.5 1.9-.1.7-.8 1.4-1.9 1.2-.7-.1-1.4-.5-1.8-1.7l-4.6-10.5-4.5-.6-1.3 8.7zm1.6-11.5l4.3.6c3.4.5 6.5.7 7-3.3.5-3.3-2.3-4.3-5-4.7l-5.2-.7-1.1 8.1z"/></g><g fill-rule="evenodd" clip-rule="evenodd" fill="#EF539E"><path d="M1144.9 564.5c-9.3 17.4-5.5 37.4 10.7 46.3 16.2 8.9 35 1.1 44.4-16.2l36.5-67.9.7.4 12.8 108.8c2.9 22.6 6.3 29.9 19 36.8 19.1 10.4 35.9-1.4 42.1-12.9 4.8-8.9 2.8-23 1.3-33.8l-11.8-89.3 46.9-15.9c20.6-6.8 30.6-10.2 36.5-21.1 7.9-14.7 4.3-33.6-11.9-42.4-13.4-7.3-27.1-1.3-42.3 3.9l-71.2 24.5 68.9-128.2c9.4-17.4 5.5-37.4-10.7-46.3-16.2-8.9-35-1.1-44.4 16.2l-127.5 237.1z"/><path d="M1304.7 637.6c-19.1 23.4 4.2 64.9 34.6 90 33.2 27.5 80.1 29.4 110.5-7.9 47.4-58-32.2-115.9-15.3-136.6 6.4-7.8 15.4-6.1 21.9-.6 14.9 12.3 18.4 37.4 28 45.3 11.5 9.5 27.7 7.5 38.4-5.7 22.5-27.5-5.5-67.7-25.1-83.9-38.8-32.1-86.7-21.8-111.4 8.4-23.3 28.5-18.2 49.7-2.5 81.4 17 34.6 26.7 44.3 17.9 55.1-4.4 5.4-12.3 7.4-22.3-.8-20.8-17.2-18.8-41.2-34.1-53.8-10.8-8.9-28.4-5.9-40.6 9.1zM708 417.4c19.9-3 29.3-10.2 25.8-34.1-8.9-59.1-56.6-109.2-117.8-100-63.5 9.6-99.8 73.7-90 138.8 10.2 68.2 60.1 116.2 126.8 106.2 46.9-7.1 94-36.4 89.1-69.4-2.6-17.4-16.3-27.3-30.2-25.2-14.3 2.1-29.8 26.2-60.3 30.8-39.7 6-53.2-16-55.3-30.3L708 417.4zm-118.9-29.6c-2.3-15.2 9.7-43.2 34-46.9 24.2-3.6 44 19.6 46.2 34.8l-80.2 12.1z"/></g><path fill-rule="evenodd" clip-rule="evenodd" fill="#EF539E" d="M289.3 552.5c-34.9-32.8-68.8-25.1-99.5-12.4-42.1 17.3-54.8 26.1-66.3 13.3-9.8-10.9-7.7-25.7 4.8-37.1 19.6-17.8 31.9-13.7 46.7-27.1 12.2-11.1 11.5-28.5-.8-42.2-17.3-19.3-50.3-14.7-87.1 18.8-38.3 34.7-52.3 88.6-9 136.8 36 40.1 70.7 28.9 102.1 15.6 34.5-14.4 55.1-26.9 70.2-10.1 9.8 10.9 12.2 26.7-5.7 43-23.5 21.4-49.7 22-61.1 32.3-13.9 12.6-9.8 32.6 2.4 46.3 22.3 24.9 73.5-.7 100.4-25.2 25.8-23.4 41-52.4 39-82.9l-36.1-69.1z"/><path fill="#EF539E" d="M1573.5 605.4v4.2h-12.4v32.5h-4.9v-32.5h-12.4v-4.2h29.7zm39.8 36.7l-1.8-25c-.1-2.2-.3-4.9-.4-7.8h-.3c-.8 2.2-2 5.9-3 8.8l-8.5 23.5h-5.5l-8.6-24.2c-.7-2.3-1.9-5.8-2.7-8.1h-.3c0 2.4-.1 5-.3 7.8l-1.8 25h-4.9l3-36.7h7.2l8.6 23.5c1.1 2.7 1.8 5.3 2.6 7.7h.3c.8-2.6 1.8-5.5 2.4-7.4l8.6-23.8h7.2l3.2 36.7h-5zm-581.9-403.6zm18.4-15.6c-19.5-21-45.5-8.5-45.5-8.5-32.8 17.6-38.5 56.8-38.5 56.8-7 34.6 6.6 53.2 6.6 53.2 6.3 7.5 14.2 20.8 14.2 20.8 3.5 4.8-.5 24.6-.5 24.6l-37.9 150.8c1.4 13 21.9 16.1 21.9 16.1 20.6 2.2 23.4-6.1 23.4-6.1 3.6-9.6 6-38.5 6-38.5l10.4-115.1c2.1-9.4 4.3-16.6 4.3-16.6 2-10.9 14.6-17.8 14.6-17.8 29.6-13.8 34.8-46.6 34.8-46.6 9.3-48-13.8-73.1-13.8-73.1zm-.7 66.8c-.5 1.9-2.4 3-4.3 2.5s-3-2.4-2.5-4.3c1.9-7.1 2.6-13.3 2.6-18.6 0-11.4-3.4-18.9-6.7-23.8-3.3-4.8-6.8-6.9-6.9-7-1.7-1-2.2-3.1-1.3-4.8 1-1.7 3.1-2.3 4.8-1.3.3.2 4.5 2.7 8.8 8.5 4.2 5.8 8.3 15.1 8.3 28.3 0 6.1-.8 12.8-2.8 20.5z"/><path fill-rule="evenodd" clip-rule="evenodd" fill="#EF539E" d="M545 517.7l-81-257.1c-5.9-18.8-22.9-30-40.6-24.4-17.6 5.6-25.1 24.6-19.2 43.4l24.4 77.5c-13.8-6.2-29.5-10.9-55.2-2.7-52 16.5-75.7 81.7-55 147.4.8 2.4 1.6 4.8 2.4 7.1l48.5 65.6c.3.4.9 1.2 1.7 2.3 23.3 16.2 50.6 22.1 76.8 13.8 22.6-7.2 35.6-19.2 43.4-41.4 7.4 8.7 20 16.7 34.5 12.1 17.7-5.8 25.3-24.8 19.3-43.6zM436.6 525c-26.4 8.4-48.9-12.1-58.4-42.3-9.5-30.2-2.9-59.9 23.5-68.3 26.4-8.4 48.9 12.1 58.3 42.3 9.6 30.1 3 59.9-23.4 68.3zm569.5-11.2c8.4 27 27 49.5 55.4 61.9 22.8 10 73.3 17.7 86.9-13.7 5.7-13.3 1.7-32.3-11.6-38.1-8.5-3.7-24.6 2.2-49.3-8.6-25.4-11.1-29-41.4-16.5-70.4 12.5-29 36.5-47.2 65.6-34.5 22.5 9.8 22 22.1 36.8 28.5 13.3 5.8 28.9-2.2 36.2-19.1 14.4-33.4-24.5-60-50.3-71.3-54.9-24-114.9 3.9-144 60.2m-75.9 108.7l13.3-47.9c-2.9-4.7-6.6-9.4-10.8-14.6L863.6 357l75.7-79.2c6.7-7.4 12.6-16.8 12.9-26.9.5-18-16.4-33.1-30.2-33.4-9.2-.2-16.9 1.7-29.5 16.4l-87.7 99.4 2-82.8c.6-23.8-12.1-36.3-30.1-36.8s-31.3 11.3-31.8 35.2l-5.6 230.8c-.6 23.8 12.1 36.3 30.1 36.8s31.3-11.3 31.8-35.1l2.4-98.7 83.8 108.5c9.6 12.4 21.1 29 37.5 29.4 5 .1 9.9-.8 14.3-2.6.1-.2.1-.4.2-.6z"/><path fill="#EF539E" d="M214.5 374.2zm2.9-24c-28.6-2.2-39.2 24.7-39.2 24.7-12.1 35.2 10.4 67.9 10.4 67.9 18.3 30.2 41 34.5 41 34.5 9.7 1.3 24.5 5.6 24.5 5.6 5.9 1.1 16.4 18.4 16.4 18.4l74.7 136.4c9.9 8.6 27-3 27-3 16.6-12.4 13-20.4 13-20.4-3.9-9.5-21.7-32.4-21.7-32.4l-70.6-91.5c-4.9-8.3-8.1-15.1-8.1-15.1-5.9-9.4-1.4-23-1.4-23 12.3-30.2-6.1-57.8-6.1-57.8-25.8-41.6-59.9-44.3-59.9-44.3zm44.9 49.4c.9 1.7.3 3.8-1.4 4.7-1.7.9-3.8.3-4.7-1.4-3.5-6.5-7.1-11.5-10.8-15.4-7.8-8.4-15.3-11.6-21.1-12.9-5.7-1.3-9.7-.5-9.8-.4-1.9.4-3.7-.7-4.2-2.6-.4-1.9.7-3.8 2.6-4.2.3-.1 5.1-1.1 12.2.3 7.1 1.4 16.4 5.4 25.4 15.1 4.1 4.4 8.1 9.9 11.8 16.8z"/><g fill="#EF539E"><path d="M1144.9 564.5c-9.3 17.4-5.5 37.4 10.7 46.3 16.2 8.9 35 1.1 44.4-16.2l36.5-67.9.7.4 12.8 108.8c2.9 22.6 6.3 29.9 19 36.8 19.1 10.4 35.9-1.4 42.1-12.9 4.8-8.9 2.8-23 1.3-33.8l-11.8-89.3 46.9-15.9c20.6-6.8 30.6-10.2 36.5-21.1 7.9-14.7 4.3-33.6-11.9-42.4-13.4-7.3-27.1-1.3-42.3 3.9l-71.2 24.5 68.9-128.2c9.4-17.4 5.5-37.4-10.7-46.3-16.2-8.9-35-1.1-44.4 16.2l-127.5 237.1z"/><path d="M1304.7 637.6c-19.1 23.4 4.2 64.9 34.6 90 33.2 27.5 80.1 29.4 110.5-7.9 47.4-58-32.2-115.9-15.3-136.6 6.4-7.8 15.4-6.1 21.9-.6 14.9 12.3 18.4 37.4 28 45.3 11.5 9.5 27.7 7.5 38.4-5.7 22.5-27.5-5.5-67.7-25.1-83.9-38.8-32.1-86.7-21.8-111.4 8.4-23.3 28.5-18.2 49.7-2.5 81.4 17 34.6 26.7 44.3 17.9 55.1-4.4 5.4-12.3 7.4-22.3-.8-20.8-17.2-18.8-41.2-34.1-53.8-10.8-8.9-28.4-5.9-40.6 9.1zM708 417.4c19.9-3 29.3-10.2 25.8-34.1-8.9-59.1-56.6-109.2-117.8-100-63.5 9.6-99.8 73.7-90 138.8 10.2 68.2 60.1 116.2 126.8 106.2 46.9-7.1 94-36.4 89.1-69.4-2.6-17.4-16.3-27.3-30.2-25.2-14.3 2.1-29.8 26.2-60.3 30.8-39.7 6-53.2-16-55.3-30.3L708 417.4zm-118.9-29.6c-2.3-15.2 9.7-43.2 34-46.9 24.2-3.6 44 19.6 46.2 34.8l-80.2 12.1z"/><path d="M1144.9 564.5c-9.3 17.4-5.5 37.4 10.7 46.3 16.2 8.9 35 1.1 44.4-16.2l36.5-67.9.7.4 12.8 108.8c2.9 22.6 6.3 29.9 19 36.8 19.1 10.4 35.9-1.4 42.1-12.9 4.8-8.9 2.8-23 1.3-33.8l-11.8-89.3 46.9-15.9c20.6-6.8 30.6-10.2 36.5-21.1 7.9-14.7 4.3-33.6-11.9-42.4-13.4-7.3-27.1-1.3-42.3 3.9l-71.2 24.5 68.9-128.2c9.4-17.4 5.5-37.4-10.7-46.3-16.2-8.9-35-1.1-44.4 16.2l-127.5 237.1z"/><path d="M1304.7 637.6c-19.1 23.4 4.2 64.9 34.6 90 33.2 27.5 80.1 29.4 110.5-7.9 47.4-58-32.2-115.9-15.3-136.6 6.4-7.8 15.4-6.1 21.9-.6 14.9 12.3 18.4 37.4 28 45.3 11.5 9.5 27.7 7.5 38.4-5.7 22.5-27.5-5.5-67.7-25.1-83.9-38.8-32.1-86.7-21.8-111.4 8.4-23.3 28.5-18.2 49.7-2.5 81.4 17 34.6 26.7 44.3 17.9 55.1-4.4 5.4-12.3 7.4-22.3-.8-20.8-17.2-18.8-41.2-34.1-53.8-10.8-8.9-28.4-5.9-40.6 9.1zM708 417.4c19.9-3 29.3-10.2 25.8-34.1-8.9-59.1-56.6-109.2-117.8-100-63.5 9.6-99.8 73.7-90 138.8 10.2 68.2 60.1 116.2 126.8 106.2 46.9-7.1 94-36.4 89.1-69.4-2.6-17.4-16.3-27.3-30.2-25.2-14.3 2.1-29.8 26.2-60.3 30.8-39.7 6-53.2-16-55.3-30.3L708 417.4zm-118.9-29.6c-2.3-15.2 9.7-43.2 34-46.9 24.2-3.6 44 19.6 46.2 34.8l-80.2 12.1z"/><path d="M1144.9 564.5c-9.3 17.4-5.5 37.4 10.7 46.3 16.2 8.9 35 1.1 44.4-16.2l36.5-67.9.7.4 12.8 108.8c2.9 22.6 6.3 29.9 19 36.8 19.1 10.4 35.9-1.4 42.1-12.9 4.8-8.9 2.8-23 1.3-33.8l-11.8-89.3 46.9-15.9c20.6-6.8 30.6-10.2 36.5-21.1 7.9-14.7 4.3-33.6-11.9-42.4-13.4-7.3-27.1-1.3-42.3 3.9l-71.2 24.5 68.9-128.2c9.4-17.4 5.5-37.4-10.7-46.3-16.2-8.9-35-1.1-44.4 16.2l-127.5 237.1z"/><path d="M1304.7 637.6c-19.1 23.4 4.2 64.9 34.6 90 33.2 27.5 80.1 29.4 110.5-7.9 47.4-58-32.2-115.9-15.3-136.6 6.4-7.8 15.4-6.1 21.9-.6 14.9 12.3 18.4 37.4 28 45.3 11.5 9.5 27.7 7.5 38.4-5.7 22.5-27.5-5.5-67.7-25.1-83.9-38.8-32.1-86.7-21.8-111.4 8.4-23.3 28.5-18.2 49.7-2.5 81.4 17 34.6 26.7 44.3 17.9 55.1-4.4 5.4-12.3 7.4-22.3-.8-20.8-17.2-18.8-41.2-34.1-53.8-10.8-8.9-28.4-5.9-40.6 9.1zM708 417.4c19.9-3 29.3-10.2 25.8-34.1-8.9-59.1-56.6-109.2-117.8-100-63.5 9.6-99.8 73.7-90 138.8 10.2 68.2 60.1 116.2 126.8 106.2 46.9-7.1 94-36.4 89.1-69.4-2.6-17.4-16.3-27.3-30.2-25.2-14.3 2.1-29.8 26.2-60.3 30.8-39.7 6-53.2-16-55.3-30.3L708 417.4zm-118.9-29.6c-2.3-15.2 9.7-43.2 34-46.9 24.2-3.6 44 19.6 46.2 34.8l-80.2 12.1zM289.3 552.5c-34.9-32.8-68.8-25.1-99.5-12.4-42.1 17.3-54.8 26.1-66.3 13.3-9.8-10.9-7.7-25.7 4.8-37.1 19.6-17.8 31.9-13.7 46.7-27.1 12.2-11.1 11.5-28.5-.8-42.2-17.3-19.3-50.3-14.7-87.1 18.8-38.3 34.7-52.3 88.6-9 136.8 36 40.1 70.7 28.9 102.1 15.6 34.5-14.4 55.1-26.9 70.2-10.1 9.8 10.9 12.2 26.7-5.7 43-23.5 21.4-49.7 22-61.1 32.3-13.9 12.6-9.8 32.6 2.4 46.3 22.3 24.9 73.5-.7 100.4-25.2 25.8-23.4 41-52.4 39-82.9l-36.1-69.1zm1284.2 52.9v4.2h-12.4v32.5h-4.9v-32.5h-12.4v-4.2h29.7zm39.8 36.7l-1.8-25c-.1-2.2-.3-4.9-.4-7.8h-.3c-.8 2.2-2 5.9-3 8.8l-8.5 23.5h-5.5l-8.6-24.2c-.7-2.3-1.9-5.8-2.7-8.1h-.3c0 2.4-.1 5-.3 7.8l-1.8 25h-4.9l3-36.7h7.2l8.6 23.5c1.1 2.7 1.8 5.3 2.6 7.7h.3c.8-2.6 1.8-5.5 2.4-7.4l8.6-23.8h7.2l3.2 36.7h-5zm-581.9-403.6zm18.4-15.6c-19.5-21-45.5-8.5-45.5-8.5-32.8 17.6-38.5 56.8-38.5 56.8-7 34.6 6.6 53.2 6.6 53.2 6.3 7.5 14.2 20.8 14.2 20.8 3.5 4.8-.5 24.6-.5 24.6l-37.9 150.8c1.4 13 21.9 16.1 21.9 16.1 20.6 2.2 23.4-6.1 23.4-6.1 3.6-9.6 6-38.5 6-38.5l10.4-115.1c2.1-9.4 4.3-16.6 4.3-16.6 2-10.9 14.6-17.8 14.6-17.8 29.6-13.8 34.8-46.6 34.8-46.6 9.3-48-13.8-73.1-13.8-73.1zm-.7 66.8c-.5 1.9-2.4 3-4.3 2.5s-3-2.4-2.5-4.3c1.9-7.1 2.6-13.3 2.6-18.6 0-11.4-3.4-18.9-6.7-23.8-3.3-4.8-6.8-6.9-6.9-7-1.7-1-2.2-3.1-1.3-4.8 1-1.7 3.1-2.3 4.8-1.3.3.2 4.5 2.7 8.8 8.5 4.2 5.8 8.3 15.1 8.3 28.3 0 6.1-.8 12.8-2.8 20.5z"/><path d="M1022.1 210.6c8.5 0 18.8 2.6 27.7 12.2 0 0 23.1 25.1 13.8 73.1 0 0-5.3 32.8-34.8 46.6 0 0-12.6 6.9-14.6 17.8 0 0-2.2 7.2-4.3 16.6L999.5 492s-2.5 28.9-6 38.5c0 0-2.1 6.5-16.9 6.5-1.9 0-4.1-.1-6.4-.4 0 0-20.5-3.1-21.9-16.1l37.9-150.8s4-19.8.5-24.6c0 0-7.9-13.2-14.2-20.8 0 0-13.6-18.6-6.6-53.2 0 0 5.7-39.2 38.5-56.8-.1 0 7.6-3.7 17.7-3.7m23.7 81.7c1.6 0 3-1 3.4-2.6 2-7.6 2.8-14.4 2.8-20.4 0-13.2-4.1-22.5-8.3-28.3-4.2-5.9-8.5-8.3-8.8-8.5-.5-.3-1.1-.5-1.7-.5-1.2 0-2.4.6-3 1.8-1 1.7-.4 3.8 1.3 4.8.1.1 3.6 2.2 6.9 7 3.3 4.8 6.7 12.4 6.7 23.8 0 5.3-.7 11.5-2.6 18.6-.5 1.9.6 3.8 2.5 4.3h.8m-23.7-82.7c-10.2 0-17.9 3.6-18.2 3.8-17.2 9.3-26.9 24.4-32 35.5-5.4 11.8-6.9 21.3-7 22-7 34.6 6.2 53.2 6.8 53.9 6.2 7.4 14 20.5 14.1 20.6 2.7 3.7.4 18.4-.7 23.8L947.3 520v.4c1.5 13.6 21.8 16.8 22.7 17 2.4.2 4.6.4 6.6.4 15.3 0 17.8-6.9 17.9-7.2 3.6-9.6 6-37.6 6.1-38.7l10.4-115.1c2-9.2 4.2-16.4 4.3-16.4v-.2c1.9-10.1 13.4-16.7 14.1-17.1 15.5-7.2 24.3-19.7 28.9-28.9 5-9.9 6.4-18.1 6.4-18.4 4.8-25 .8-43.7-3.5-55-4.6-12.3-10.4-18.6-10.6-18.9-7.8-8-17.3-12.3-28.5-12.3zm10.6 28.6l-.8-.6c-1.2-.7-1.6-2.2-.9-3.4.4-.8 1.3-1.3 2.2-1.3.4 0 .9.1 1.2.3.4.3 4.5 2.7 8.5 8.2 3.7 5.1 8.2 14.1 8.1 27.7 0 6.3-.9 13-2.8 20.1-.3 1.1-1.3 1.9-2.4 1.9-.2 0-.4 0-.6-.1-.6-.2-1.2-.6-1.5-1.1-.3-.6-.4-1.2-.3-1.9 1.7-6.7 2.6-13 2.6-18.9 0-9.6-2.3-17.8-6.9-24.3-2.5-3.5-5.1-5.6-6.4-6.6z"/><path d="M545 517.7l-81-257.1c-5.9-18.8-22.9-30-40.6-24.4-17.6 5.6-25.1 24.6-19.2 43.4l24.4 77.5c-13.8-6.2-29.5-10.9-55.2-2.7-52 16.5-75.7 81.7-55 147.4.8 2.4 1.6 4.8 2.4 7.1l48.5 65.6c.3.4.9 1.2 1.7 2.3 23.3 16.2 50.6 22.1 76.8 13.8 22.6-7.2 35.6-19.2 43.4-41.4 7.4 8.7 20 16.7 34.5 12.1 17.7-5.8 25.3-24.8 19.3-43.6zM436.6 525c-26.4 8.4-48.9-12.1-58.4-42.3-9.5-30.2-2.9-59.9 23.5-68.3 26.4-8.4 48.9 12.1 58.3 42.3 9.6 30.1 3 59.9-23.4 68.3zm569.5-11.2c8.4 27 27 49.5 55.4 61.9 22.8 10 73.3 17.7 86.9-13.7 5.7-13.3 1.7-32.3-11.6-38.1-8.5-3.7-24.6 2.2-49.3-8.6-25.4-11.1-29-41.4-16.5-70.4 12.5-29 36.5-47.2 65.6-34.5 22.5 9.8 22 22.1 36.8 28.5 13.3 5.8 28.9-2.2 36.2-19.1 14.4-33.4-24.5-60-50.3-71.3-54.9-24-114.9 3.9-144 60.2m-75.9 108.7l13.3-47.9c-2.9-4.7-6.6-9.4-10.8-14.6L863.6 357l75.7-79.2c6.7-7.4 12.6-16.8 12.9-26.9.5-18-16.4-33.1-30.2-33.4-9.2-.2-16.9 1.7-29.5 16.4l-87.7 99.4 2-82.8c.6-23.8-12.1-36.3-30.1-36.8s-31.3 11.3-31.8 35.2l-5.6 230.8c-.6 23.8 12.1 36.3 30.1 36.8s31.3-11.3 31.8-35.1l2.4-98.7 83.8 108.5c9.6 12.4 21.1 29 37.5 29.4 5 .1 9.9-.8 14.3-2.6.1-.2.1-.4.2-.6z"/><path d="M214.5 374.2zm2.9-24c-28.6-2.2-39.2 24.7-39.2 24.7-12.1 35.2 10.4 67.9 10.4 67.9 18.3 30.2 41 34.5 41 34.5 9.7 1.3 24.5 5.6 24.5 5.6 5.9 1.1 16.4 18.4 16.4 18.4l74.7 136.4c9.9 8.6 27-3 27-3 16.6-12.4 13-20.4 13-20.4-3.9-9.5-21.7-32.4-21.7-32.4l-70.6-91.5c-4.9-8.3-8.1-15.1-8.1-15.1-5.9-9.4-1.4-23-1.4-23 12.3-30.2-6.1-57.8-6.1-57.8-25.8-41.6-59.9-44.3-59.9-44.3zm44.9 49.4c.9 1.7.3 3.8-1.4 4.7-1.7.9-3.8.3-4.7-1.4-3.5-6.5-7.1-11.5-10.8-15.4-7.8-8.4-15.3-11.6-21.1-12.9-5.7-1.3-9.7-.5-9.8-.4-1.9.4-3.7-.7-4.2-2.6-.4-1.9.7-3.8 2.6-4.2.3-.1 5.1-1.1 12.2.3 7.1 1.4 16.4 5.4 25.4 15.1 4.1 4.4 8.1 9.9 11.8 16.8z"/><path d="M214.1 350c1.1 0 2.2 0 3.3.1 0 0 34.1 2.7 59.8 44.2 0 0 18.4 27.6 6.1 57.8 0 0-4.5 13.6 1.4 23 0 0 3.2 6.8 8.1 15.1l70.6 91.5s17.8 22.9 21.7 32.4c0 0 3.6 7.9-13 20.4 0 0-9.1 6.2-17.9 6.2-3.2 0-6.4-.8-9.1-3.2l-74.7-136.4s-10.5-17.3-16.4-18.4c0 0-14.8-4.3-24.5-5.6 0 0-22.6-4.4-41-34.5 0 0-22.4-32.6-10.4-67.9.1.1 9.9-24.7 36-24.7m-.4 24.3c.3 0 .5 0 .8-.1.1 0 1.4-.3 3.5-.3 1.7 0 3.8.2 6.4.7 5.7 1.3 13.3 4.5 21.1 12.9 3.6 3.9 7.3 8.9 10.8 15.4.6 1.2 1.8 1.8 3.1 1.8.6 0 1.1-.1 1.6-.4 1.7-.9 2.3-3 1.4-4.7-3.7-7-7.7-12.5-11.8-16.9-9-9.7-18.3-13.7-25.4-15.1-2.8-.6-5.3-.7-7.2-.7-3 0-4.8.4-5 .5-1.9.4-3.1 2.3-2.6 4.2.3 1.6 1.7 2.7 3.3 2.7m.4-25.3c-13.8 0-23.1 6.9-28.5 12.7-5.8 6.3-8.3 12.4-8.4 12.7-6.3 18.5-3.2 36.2.6 47.8 4 12.3 9.4 20.4 9.8 21 18.3 30.2 40.7 34.8 41.6 35 9.6 1.2 24.2 5.5 24.4 5.6 4.5.9 12.9 13.2 15.7 17.9L344 638l.1.2.1.1c2.6 2.3 5.9 3.4 9.7 3.4 9 0 18.1-6.1 18.5-6.4 17.1-12.8 13.5-21.3 13.3-21.6-3.9-9.5-21.1-31.6-21.9-32.6l-70.6-91.5c-4.8-8.1-8-14.9-8-14.9v-.1c-5.4-8.6-1.5-21.4-1.3-22.1 6.5-15.8 4.4-31 1.6-40.9-3.1-10.7-7.6-17.6-7.8-17.9-13.4-21.6-29.1-32.6-39.9-38-11.8-5.9-20.3-6.6-20.6-6.7-.9.1-2 0-3.1 0zm-.4 24.3c-1.2 0-2.2-.8-2.4-1.9-.3-1.3.5-2.7 1.9-3 .3-.1 2-.4 4.8-.4 2.3 0 4.6.2 7 .7 6.2 1.2 15.6 4.8 24.8 14.8 4.3 4.6 8.2 10.2 11.6 16.7.6 1.2.2 2.7-1 3.4-.4.2-.8.3-1.2.3-.9 0-1.8-.5-2.2-1.3-3.3-6.1-6.9-11.4-10.9-15.6-6.5-7-13.8-11.5-21.6-13.2-2.2-.5-4.4-.7-6.6-.7-1.1 0-2.1.1-2.7.1v-.1l-1 .2c-.1-.1-.3 0-.5 0z"/></g></svg>