<svg version="1.1" id="Art" xmlns="http://www.w3.org/2000/svg" x="0" y="0" width="1275.6" height="1133.9" viewBox="0 0 1275.6 1133.9" xml:space="preserve"><path fill="#DA2128" d="M748.1 884.6l15.8-46.5 43.3 14.8c-3.7-5.8-11.5-18.2-5.2-36.7 12.2-35.9 49.7-38.1 75-29.5 36.2 12.4 52.2 43.9 43.7 68.9-6.2 18.3-18.5 22.5-28.9 26.1l15 5.1-15.8 46.5-142.9-48.7zm126-8.8c3-2.3 7.1-5.5 9.2-11.8 4.4-13-6.8-23.2-22-28.3-18.9-6.4-31.9-1.2-35.4 9.2-1.8 5.5-.8 9.7.2 14.6l48 16.3zm-77.6-134.1l15.9-46.7 142.9 48.8-15.8 46.7-143-48.8zm178.4-139.9c5.9 8.1 21.7 30.5 10.2 64.6-13.3 39.4-46.3 54.7-80.9 42.9-35-12-51.9-44.7-39.6-81.2 5.2-15.3 13.4-25.4 21.1-31.6 25.7-21.2 55.5-11 69.8-6.1l-25.7 75.7c6.8 1.2 14.4 2.2 22.8-4 6.2-4.4 9.7-10 12-16.9 5.2-15.2-.9-27.5-4.4-34.8l14.7-8.6zm-57.4 25.5c-7.1-1.9-22.7-6.4-27.7 8.5-4.6 13.6 9.3 20.6 16.7 24.2l11-32.7zm128.8-152.5l-15.8 46.7-67.8-23.1c-9.3-3.2-17.5-2.4-20.6 6.8-2.3 6.9.8 12.3 3.1 16.2l76.5 26.1-15.6 46.1-110.7-37.8 15.6-46.1 15.2 5.2c-5.5-8.4-14.3-22.3-7.1-43.7 5.6-16.4 16.4-22.3 20.8-24.2 11.1-4.8 20.8-1.5 29.5 1.5l76.9 26.3zM935.9 330.3l15.8-46.7 142.9 48.7-15.8 46.7-14.6-5c4.8 6.6 13.5 18.9 6.5 39.6-10.5 30.9-42.7 38.2-74.3 27.4-32.2-11-55.4-37.2-44.6-68.9 6.7-19.7 19.1-24.3 27.1-27.2l-43-14.6zm62 21.1c-3.7 2.8-7.1 5.5-9 11.2-3.7 11 3.7 23.2 23.3 29.9 15.6 5.3 29.8 3.2 34.3-9.8 1.9-5.7 1.1-9.8.2-14.6l-48.8-16.7z"/><g fill="#DA2128"><path d="M567.4 202.1L520.1 344l-47.3-141.9H104.6L353 934.6h334.6l247.9-732.5H567.4zM243 381.7c30.4 8 49.8 27.7 65.1 53.2 2.5-2.3 5.3-4.2 8.5-5.6-19.3-26.8-31.1-54.7-25-88.7l31.2 5.7c-3.7 20.8-2.3 40.3 3.8 59.1.2-12.6 3.2-25 10.3-37.2l21 12.4c-9.4 16-13.4 32.7-12.8 50.3 5.8 3.4 10.6 8.6 13.3 15.2l3.4 8.3c-20.3 5.2-40.6 14.2-57.9 25.1l-3.8-9.2c-2.3-5.6-2.9-11.4-1.9-17-16.5-20.3-37.1-34.2-63.2-41.1l8-30.5zm264.4 509.4c-29.3-16.5-58.3-43.6-87-79.1 4-3.5 8.3-6.6 12.8-9.6 9.6-6.3 20.3-11.6 31.1-16 6-2.5 8.9-9.4 6.4-15.5-2.5-6-9.4-8.9-15.4-6.4-11.9 4.9-23.8 10.8-34.9 18.1-5 3.3-9.9 6.9-14.5 10.7-12-15.9-23.8-33.3-35.7-51.8l.6-.4c9.6-6.3 20.2-11.5 31.1-16 6-2.5 8.9-9.5 6.4-15.5s-9.4-9-15.5-6.4c-11.9 4.9-23.8 10.8-34.9 18.1l-.3.2c-14.1-23.1-28.1-47.8-42.1-73.9.8-.5 1.7-1.1 2.5-1.7 9.6-6.3 20.2-11.5 31.1-16 6-2.5 8.9-9.5 6.4-15.5-2.4-6.1-9.4-9-15.4-6.5-11.9 4.9-23.8 10.8-34.9 18.1l-.7.5c-5.3-10.2-10.6-20.6-15.9-31.2 5.1-4.9 10.8-9.2 16.8-13.2 9.6-6.3 20.2-11.5 31.1-16 6-2.5 8.9-9.4 6.4-15.5s-9.4-9-15.4-6.5c-11.9 5-23.8 10.8-34.9 18.1-5.1 3.3-10 7-14.7 11-5-10.3-10-20.8-15-31.4 11.6-41.7 116.9-99.2 173.5-71.9 9.9 27.4 19.4 54.4 28.3 80.9-2.6.4-5.1.9-7.6 1.4-13.3 2.8-26.1 7.2-38 13.9-5.7 3.2-7.8 10.4-4.5 16.1 3.2 5.7 10.3 7.8 16.1 4.6 9.8-5.6 20.4-9.2 31.4-11.5 3.4-.7 6.7-1.3 10.2-1.8 4.7 14.5 9.2 28.9 13.4 43-8.3 1.9-16.5 4.6-24.5 8.3-5.9 2.7-8.5 9.7-5.8 15.6 2.6 6 9.7 8.6 15.6 5.9 6.8-3.1 13.9-5.4 21.3-7 6.3 22.4 11.8 44.1 16.3 65h-1.4c-13.5.6-26.9 2.8-39.8 7.5-6.1 2.2-9.3 9-7.1 15.2 2.2 6.2 9 9.3 15.1 7.1 10.5-3.8 21.6-5.6 32.8-6 1.7-.1 3.4-.1 5.1-.1 12 66.4 12.6 122.7-5.9 163.1zM681 365.9c-2.9 2-5.5 3.9-8 5.7 2.4 10.9 3.6 21.9 3.8 33 .2 13.2-1.1 26.5-3.7 40 15.9-1.8 38.4.5 67.2 14.7 63.4 31.3 46.4 128.9-26.7 206.9-55.7 59.4-94 20.6-109.1-1.4-23.3 12.8-74.9 30.3-98-47.9-30.4-102.7-1.9-197.5 68.9-196.9 33.8.2 55.4 9.2 68.7 18.6 2.1-11.4 3.2-22.6 3.1-33.6-.3-20-4.7-39.4-14-58.2-3.6-7.4-.6-16.3 6.7-19.9 7.4-3.6 16.3-.6 19.9 6.8 4.8 9.7 8.4 19.6 11.2 29.6 5.8-21.7 17.7-49.9 41.9-66.6 43.6-30.2 146.2 10.5 146.2 10.5s-42.2 77.4-88.4 95.7c-46.1 18.2-68.2 8.1-86.5 3.3 19.5-37.9 65.6-66.1 102.3-83 0 .1-71.3 19.3-105.5 42.7z"/><path d="M722.2 483.3l-14.4 7.5c-5.4-7.9-12.1-14.7-20.4-20.4 14 3.3 25.6 7.5 34.8 12.9zm-4.8 133c8.7-41.4 11.9-75.6 4.2-102.8l21.5-7.3c18.3 25.6 8.5 60.5-25.7 110.1z"/></g><path fill="#DA2128" d="M1041 199.2c24 0 43.2 19 43.2 42.4S1065 284 1040.7 284c-24.2 0-43.9-19-43.9-42.4s19.7-42.4 43.9-42.4h.3zm-.7 11.3c-16.8 0-29.6 14-29.6 31.3 0 17.1 12.7 30.8 29.8 30.8 17.3.2 30-13.7 30-31.1 0-17.1-12.7-31.1-30-31.1h-.2zm-4.3 50.4h-13.2v-37.6c2.4-.5 9.4-1.4 17.8-1.4 9.1 0 13.2 1.2 16.1 3.1 2.4 1.4 4.1 4.3 4.1 8.2 0 3.4-3.6 7-9.1 8.4v.5c4.6 1.5 7 4.4 8.2 9.9 1.2 5.3 2.2 7.7 2.6 8.9h-14.6c-1.2-1.4-1.9-4.8-2.6-7.7-.7-3.6-2.4-5.3-5.8-5.3h-3.3v13zm.4-21.7h2.9c4.1 0 6.3-1.9 6.3-4.1 0-2.9-2.4-4.3-5.8-4.3-1.2 0-2.4.2-3.4.2v8.2z"/></svg>