<svg version="1.1" id="Layer_1" xmlns="http://www.w3.org/2000/svg" x="0" y="0" width="576" height="288" viewBox="0 0 576 288" xml:space="preserve"><style>.st0{fill:#e31937}</style><path d="M68.8 137.8L85 191.9l15.9-54.1h23.8l-30.4 82.6H75.5l-30.7-82.6h24zm58.8 16.3v-18.6h22.1v18.6h-22.1zm0 66.3v-61.2h22.1v61.2h-22.1zm71.6-3.4c-6.2 2.7-13.6 4.7-20.4 4.7-10 0-18.4-4.5-18.4-17.8v-28h-7.6v-16.6h7.6V140h22.1v19.2h12v16.6h-12V196c0 4.1 1.9 5.5 4.8 5.5 2.2 0 5.1-.8 7.9-2l4 17.5zm.7-15.1c0-12.3 10.9-20.9 26.4-20.9 4.8 0 9.2.8 12.3 2.3v-1.9c0-5.7-3.1-8.5-10.6-8.5-6.9 0-12.4 2.3-19 6.6l-6.4-13.7c8.1-5.2 17.1-7.8 27.6-7.8 19.4 0 30.5 8.8 30.5 26.1V196c0 4.2 1.3 5.6 5.4 5.8v18.6c-4.1.8-7.7 1.2-10.5 1.2-7.9 0-11.9-2.9-13-8.5l-.5-2.2c-5.5 7-12.8 10.7-20.8 10.7-12.2 0-21.4-8.4-21.4-19.7zm35.8 1.5c1.7-1.2 2.9-2.8 2.9-4.3v-4.5c-2.6-.9-6-1.6-8.5-1.6-5.4 0-9.4 3-9.4 7 0 3.4 3 5.8 7.2 5.8 2.7 0 5.7-1 7.8-2.4z"/><path class="st0" d="M334.6 220.4v-43.5l-13.8 30.6h-12.1l-13.8-30.6v43.5h-22.7v-82.6H297l17.8 38.9 17.9-38.9h24.7v82.6h-22.8zm26.7-30.6c0-16.9 11.6-31.8 33.5-31.8s33.5 14.9 33.5 31.8c0 16.8-11.6 31.8-33.5 31.8-21.8 0-33.5-15-33.5-31.8zm33.5 13.2c6.3 0 10.8-5 10.8-13.1s-4.5-13.1-10.8-13.1c-6.3 0-10.8 5-10.8 13.1s4.5 13.1 10.8 13.1z"/><path class="st0" d="M426.7 214.3l8.5-15c8.5 4.4 16.4 6.9 23 6.9 4 0 5.8-.9 5.8-2.9 0-2.1-2.4-3.3-11.2-5.5-17.3-4.5-23-9.1-23-18.3 0-12.6 10.9-21.5 26.2-21.5 8.1 0 17.8 2.4 27.6 6.9l-8.5 14.1c-8.6-4.1-13.8-5.7-19.1-5.7-3.4 0-5.7 1-5.7 3.1 0 2.3 2.2 3.4 10.4 5.3 18.7 4.8 24.7 9.5 24.7 19.5 0 12.6-10.2 20.4-26.6 20.4-10.5 0-24.2-3.2-32.1-7.3zM531 217c-6.2 2.7-13.6 4.7-20.4 4.7-10 0-18.4-4.5-18.4-17.8v-28h-7.6v-16.6h7.6V140h22.1v19.2h12v16.6h-12V196c0 4.1 1.9 5.5 4.8 5.5 2.2 0 5.1-.8 7.9-2l4 17.5zm-243.7-96.6c.4-.9 1-1.8 1.7-2.5s1.5-1.2 2.5-1.6c.9-.4 2-.6 3-.6s2.1.2 3 .6c.9.4 1.8.9 2.5 1.6.7.7 1.3 1.5 1.7 2.5.4.9.6 2 .6 3.1s-.2 2.2-.6 3.1c-.4.9-1 1.8-1.7 2.5s-1.5 1.2-2.5 1.6c-.9.4-1.9.6-3 .6s-2.1-.2-3-.6c-.9-.4-1.8-.9-2.5-1.6-.7-.7-1.3-1.5-1.7-2.5-.4-.9-.6-2-.6-3.1-.1-1.1.2-2.1.6-3.1zm1.3 5.7c.3.8.8 1.5 1.4 2.1.6.6 1.3 1.1 2 1.4.8.3 1.6.5 2.5.5.9 0 1.7-.2 2.5-.5s1.5-.8 2-1.4c.6-.6 1-1.3 1.3-2.1.3-.8.5-1.7.5-2.6 0-.9-.2-1.8-.5-2.6s-.8-1.5-1.3-2.1c-.6-.6-1.2-1.1-2-1.4-.8-.3-1.6-.5-2.5-.5-.9 0-1.8.2-2.5.5-.8.3-1.5.8-2 1.4-.6.6-1 1.3-1.4 2.1-.3.8-.5 1.7-.5 2.6 0 .9.1 1.8.5 2.6zm6.4-7.1c1.1 0 1.9.2 2.4.6.5.4.8 1.1.8 2 0 .8-.2 1.4-.7 1.8-.5.4-1 .6-1.7.7l2.6 4h-1.5l-2.5-3.9h-1.5v3.9h-1.4V119h3.5zm-.7 4h.9c.3 0 .5-.1.8-.2.2-.1.4-.2.5-.4.1-.2.2-.5.2-.8 0-.3-.1-.5-.2-.7-.1-.2-.3-.3-.5-.4-.2-.1-.4-.2-.6-.2-.2 0-.5-.1-.7-.1h-1.9v2.9h1.5zm-44.1 27.7s-8.2-4.6-18.1-4.4c-9.9.2-14.6-6.8-10.5-11.4 4.1-4.7 19.2-6 28.6 15.8zm6.2 5.6s-8.3-18.6-8.5-35.4c-.2-16.9 3.7-33.5 17.4-40.6 13.7-7.1 31.3 8.9 22.9 27.2-8.4 18.4-31.2 22.3-31.8 48.8z"/><path class="st0" d="M245.5 138.3s-3.8-37.8-27.9-72.8c-24.1-35-62.9-19.8-69.8 5.2-6.7 24.4 14.1 42.8 31.4 43.5 21.3 1 38.4-16.9 66.3 24.1z"/></svg>